<svg width="75" height="11" viewBox="0 0 75 11" fill="none" xmlns="http://www.w3.org/2000/svg">
<path d="M5.50003 8.82966L2.3273 10.4978L2.93337 6.96467L0.366699 4.46278L3.91366 3.9477L5.50003 0.733322L7.0864 3.9477L10.6334 4.46278L8.0667 6.96467L8.67277 10.4978L5.50003 8.82966Z" fill="#EF873D"/>
<path d="M21.5 8.82966L18.3273 10.4978L18.9334 6.96467L16.3667 4.46278L19.9137 3.9477L21.5 0.733322L23.0864 3.9477L26.6334 4.46278L24.0667 6.96467L24.6728 10.4978L21.5 8.82966Z" fill="#EF873D"/>
<path d="M37.5 8.82966L34.3273 10.4978L34.9334 6.96467L32.3667 4.46278L35.9137 3.9477L37.5 0.733322L39.0864 3.9477L42.6334 4.46278L40.0667 6.96467L40.6728 10.4978L37.5 8.82966Z" fill="#EF873D"/>
<path d="M53.5 8.82966L50.3273 10.4978L50.9334 6.96467L48.3667 4.46278L51.9137 3.9477L53.5 0.733322L55.0864 3.9477L58.6334 4.46278L56.0667 6.96467L56.6728 10.4978L53.5 8.82966Z" fill="#EF873D"/>
<path d="M69.5 8.82966L66.3273 10.4978L66.9334 6.96467L64.3667 4.46278L67.9137 3.9477L69.5 0.733322L71.0864 3.9477L74.6334 4.46278L72.0667 6.96467L72.6728 10.4978L69.5 8.82966Z" fill="#EF873D"/>
</svg>
