<svg width="17" height="12" viewBox="0 0 17 12" fill="none" xmlns="http://www.w3.org/2000/svg">
<path d="M5.43802 11.4149L5.97688 11.9537L7.05462 10.876L6.51575 10.3371L5.43802 11.4149ZM1.07774 5.97687L0.538875 5.438L8.84234e-06 5.97687L0.538875 6.51573L1.07774 5.97687ZM6.51575 1.61659L7.05462 1.07773L5.97688 -6.54091e-06L5.43802 0.538859L6.51575 1.61659ZM6.51575 10.3371L1.61661 5.438L0.538875 6.51573L5.43802 11.4149L6.51575 10.3371ZM1.61661 6.51573L6.51575 1.61659L5.43802 0.538859L0.538875 5.438L1.61661 6.51573ZM1.07774 6.73894H17V5.2148H1.07774V6.73894Z" fill="black"/>
</svg>
