<svg width="297" height="252" viewBox="0 0 297 252" fill="none" xmlns="http://www.w3.org/2000/svg">
<path fill-rule="evenodd" clip-rule="evenodd" d="M24.5416 159.466L29.4795 165.368C29.4795 165.368 26.6785 165.58 23.963 165.798C23.0162 165.869 22.0759 165.943 21.2738 166.008C19.1369 166.18 13.3377 165.032 9.91209 164.298C9.89894 164.292 9.89236 164.292 9.88579 164.292C8.33407 163.956 7.27549 163.705 7.27549 163.705C7.27549 163.705 5.52652 161.593 4.06686 159.783C3.78413 159.433 3.51456 159.097 3.26471 158.787C2.90308 158.331 2.51515 157.572 2.1338 156.675C0.923985 153.81 -0.174049 149.472 0.0232027 148.694C0.273055 147.671 10.8983 124.995 18.2295 112.13C18.9594 110.85 19.6826 109.654 20.3993 108.533C26.0341 99.6805 30.9588 95.6869 30.9588 95.6869C30.9983 96.0235 31.0312 96.3661 31.0575 96.7226C31.7413 106.117 27.9146 123.094 24.7849 135.003C22.7532 142.759 21.0174 148.383 21.0174 148.383C21.0174 148.383 21.0042 148.37 20.9911 148.35C20.9516 148.305 20.8793 148.225 20.7807 148.106C20.7478 148.06 20.7018 148.013 20.6557 147.961C20.5703 147.869 20.4848 147.757 20.373 147.637C20.2875 147.532 20.1955 147.427 20.1034 147.321L18.7292 152.529L24.535 159.46L24.5416 159.466Z" fill="#00CCB2"/>
<path fill-rule="evenodd" clip-rule="evenodd" d="M26.6496 108.538L24.7836 135.005C22.7552 142.762 21.0148 148.379 21.0148 148.379C19.0949 145.986 16.931 144.132 14.8125 142.697C17.2736 134.786 23.1609 116.185 26.6496 108.538" fill="#00A48F"/>
<path fill-rule="evenodd" clip-rule="evenodd" d="M30.9587 95.6836C30.9587 95.6836 23.8097 100.289 18.2294 112.128C18.2274 112.132 18.2255 112.137 18.2235 112.141C15.1983 117.451 11.6149 124.426 8.42929 130.862C6.41929 134.448 4.8781 137.085 4.40864 137.883C4.78868 137.265 5.86568 135.51 7.29969 133.156C3.2922 141.333 0.157212 148.143 0.0230805 148.694C-0.174171 149.472 0.923863 153.81 2.13367 156.675C2.29805 156.786 2.39668 156.846 2.39668 156.846C2.39668 156.846 1.03564 149.948 1.20659 148.588C1.37754 147.221 8.76133 132.144 9.26761 131.293C9.46618 130.959 11.2414 127.395 13.3264 123.186C16.6297 117.668 19.7903 112.276 20.7358 110.302C22.3493 106.921 26.226 101.613 29.8048 97.9583C29.814 97.9497 29.814 97.9405 29.814 97.9405C30.2374 97.5114 30.6523 97.1002 31.058 96.7252C31.031 96.3688 30.9949 96.0222 30.9587 95.6836" fill="#00DABE"/>
<path fill-rule="evenodd" clip-rule="evenodd" d="M29.4793 165.368C29.4793 165.368 26.6784 165.579 23.9629 165.797C21.3723 165.467 18.0322 165.064 16.9867 165.025C15.7835 164.972 12.4368 164.596 9.91198 164.299C9.89883 164.292 9.89225 164.292 9.88568 164.292C8.33396 163.955 7.27538 163.705 7.27538 163.705C7.27538 163.705 5.52641 161.592 4.06675 159.783C4.55988 159.929 6.2431 160.404 7.74221 160.767C9.52405 161.19 11.3914 161.533 11.3914 161.533C11.3914 161.533 8.76134 159.486 8.24849 158.549C7.74221 157.618 7.31483 155.315 7.31483 155.315L13.6795 156.423C13.6795 156.423 10.793 152.417 9.7739 151.565C8.76134 150.714 6.04584 149.354 6.04584 149.354L4.51386 148.845C4.51386 148.845 6.89403 148.588 7.82768 148.925C8.76134 149.268 10.2013 149.697 10.2013 149.697L12.1541 143.815C12.1541 143.815 13.8504 150.714 16.0531 153.103C18.0519 155.255 23.5026 158.8 24.5349 159.46L24.5415 159.467L29.4793 165.368Z" fill="#00A48F"/>
<path fill-rule="evenodd" clip-rule="evenodd" d="M81.4451 247.524L42.1289 250.054L38.6494 250.274L11.8823 252L13.3426 226.192L13.3972 225.104L13.5142 223.076L31.1479 222.673L78.5961 221.587L79.8855 233.354L81.4451 247.524Z" fill="#00CCB2"/>
<path fill-rule="evenodd" clip-rule="evenodd" d="M79.8854 233.354C70.4818 233.153 42.1288 231.49 42.1288 231.49V250.054L38.6493 250.274L39.6494 234.322C38.3876 233.737 20.0682 228.21 13.3426 226.191C11.8106 225.725 10.8815 225.451 10.8815 225.451L13.3971 225.104L31.1478 222.673L78.5961 221.587L79.8854 233.354Z" fill="#00A48F"/>
<path fill-rule="evenodd" clip-rule="evenodd" d="M90.6405 92.6782C90.6405 92.6782 89.2702 103.787 87.5844 117.912C85.6185 134.448 83.2212 155.122 82.0844 166.944C81.5978 172.07 81.2914 179.406 81.1021 187.646C80.8318 199.652 80.8226 213.575 80.9035 225.35C72.565 225.679 52.9832 226.511 43.8596 227.242C34.2403 228.018 16.8947 226.154 10.8818 225.451C12.7031 206.896 15.2003 184.458 16.3088 169.072C16.3812 168.013 16.4712 166.926 16.5705 165.821C16.6336 165.181 16.6875 164.524 16.7507 163.865C17.301 158.329 18.1032 152.308 19.0677 146.205C22.2231 126.052 27.0459 105.057 29.8048 97.9584C29.814 97.9492 29.814 97.9406 29.814 97.9406C30.2558 96.8171 30.6431 96.0401 30.9587 95.6837C33.2126 93.1535 40.1276 90.01 43.8596 88.4389C43.8688 88.4297 43.878 88.4297 43.878 88.4297C45.3476 87.8085 46.3213 87.4342 46.3213 87.4342L76.5041 85.0763L90.6405 92.6782Z" fill="#00CCB2"/>
<path fill-rule="evenodd" clip-rule="evenodd" d="M31.0579 96.7253C31.9055 95.9397 32.7076 95.2816 33.4473 94.7879C37.468 92.1118 43.49 88.658 43.8596 88.4389C40.1276 90.01 33.2126 93.1534 30.9586 95.6836C30.6437 96.0401 30.2558 96.817 29.8139 97.9406C30.2374 97.5108 30.6522 97.0996 31.0579 96.7253" fill="#00DABE"/>
<path fill-rule="evenodd" clip-rule="evenodd" d="M67.0833 129.752L51.7299 154.922L26.1983 161.45L29.4793 165.368C29.4793 165.368 24.3902 165.751 21.2736 166.008C20.2906 166.087 18.5357 165.887 16.5928 165.577C16.5856 165.657 16.5783 165.741 16.5705 165.821C22.4301 167.949 35.0431 172.398 39.2169 172.782C39.2169 172.782 49.4582 175.961 56.4363 179.406C61.7463 182.037 75.0529 185.929 81.102 187.646C81.2914 179.406 81.5978 172.069 82.0843 166.944C83.2211 155.122 85.6184 134.448 87.5843 117.911L67.0833 129.752Z" fill="#00A48F"/>
<path fill-rule="evenodd" clip-rule="evenodd" d="M62.222 119.161L52.4705 118.131L53.3095 115.523L63.061 116.553L62.222 119.161Z" fill="white"/>
<path fill-rule="evenodd" clip-rule="evenodd" d="M20.3401 138.528C20.0902 139.954 19.8469 141.393 19.6102 142.825C19.4196 143.954 19.242 145.083 19.0645 146.205C18.9527 146.924 18.841 147.645 18.7358 148.357C18.5188 149.756 18.3215 151.149 18.1243 152.529L14.8105 156.509C14.8105 156.509 12.8116 154.7 11.9832 153.229C11.7268 152.773 11.4572 152.133 11.2205 151.467C10.6879 150.008 10.2671 148.436 10.2671 148.436C10.2671 148.436 11.4703 141.604 12.1739 140.581C12.8708 139.558 17.3287 138.726 17.9665 138.6C18.098 138.574 18.3018 138.554 18.5385 138.547C19.0908 138.514 19.8404 138.521 20.3401 138.528" fill="#58BAD3"/>
<path fill-rule="evenodd" clip-rule="evenodd" d="M19.6103 142.825C19.4196 143.954 19.2421 145.082 19.0646 146.205C18.9528 146.924 18.841 147.644 18.7358 148.357L16.5661 148.951C16.5661 148.627 17.6444 146.396 17.6444 146.396C17.6444 146.396 18.1572 144.159 18.6635 143.71C18.9462 143.459 19.2881 143.115 19.6103 142.825" fill="#0099B8"/>
<path fill-rule="evenodd" clip-rule="evenodd" d="M18.5386 138.548C16.7371 139.181 13.6665 140.317 13.0024 140.898C12.0491 141.729 11.2798 145.433 11.2206 146.205C11.1614 146.931 11.214 151.017 11.2206 151.466C10.688 150.007 10.2672 148.436 10.2672 148.436C10.2672 148.436 11.4704 141.604 12.174 140.581C12.8709 139.558 17.3288 138.726 17.9666 138.601C18.0981 138.574 18.3019 138.554 18.5386 138.548" fill="#85E4E0"/>
<path fill-rule="evenodd" clip-rule="evenodd" d="M99.6228 111.952C97.9067 120.546 88.0375 138.02 82.356 147.584L82.3494 147.591C79.9765 151.598 78.3327 154.219 78.3327 154.219C78.3327 154.219 70.133 164.985 67.0171 167.665C63.9071 170.352 49.7838 174.181 47.7456 174.563C45.7073 174.946 36.6732 171.501 32.7281 169.454C28.7831 167.408 17.2044 161.533 15.8039 159.744C14.4035 157.954 14.4298 155.717 14.4298 155.717C14.4298 155.717 14.4357 154.8 14.5481 153.618C14.6993 152.06 15.0412 150.053 15.8237 149.162C17.2044 147.604 19.1967 147.321 19.1967 147.321C19.1967 147.321 22.6749 147.169 24.2003 147.769C25.7257 148.377 36.9888 151.44 39.3098 152.013C39.6648 152.1 40.1448 152.258 40.7037 152.443C43.5566 153.427 48.4484 155.479 48.9751 155.704C49.008 155.711 49.0211 155.717 49.0211 155.717C53.0253 153.757 53.3475 151.737 53.2818 150.905C53.4527 150.681 53.6237 150.456 53.7946 150.224C54.5047 149.862 55.6093 149.169 55.7671 148.377C55.8395 148.02 55.7606 147.743 55.6093 147.538C55.9966 146.897 56.3326 146.258 56.5956 145.637C56.5956 145.637 56.6022 145.637 56.6022 145.631C56.635 145.604 56.6673 145.571 56.6936 145.545C57.1604 145.082 58.6792 144.139 57.7397 143.01C57.6404 142.878 57.4891 142.786 57.2991 142.726C57.2991 142.726 57.2728 142.667 57.2399 142.541C57.1216 142.099 56.9309 140.838 57.7397 138.832C57.7397 138.832 61.7439 127.339 66.6942 117.094L66.7015 117.081C68.9107 112.513 71.3099 108.182 73.625 105.238C76.255 101.885 79.1678 99.3369 81.8438 97.4424C82.9681 96.6437 84.0524 95.9638 85.0524 95.3829H85.0649C88.4517 93.4283 90.897 92.6764 90.897 92.6764C90.897 92.6764 91.851 93.2837 93.1398 94.4448C94.8887 96.0166 97.2617 98.6174 98.6957 102.123C99.8266 104.862 100.385 108.163 99.6228 111.952" fill="#00CCB2"/>
<path fill-rule="evenodd" clip-rule="evenodd" d="M48.7444 155.711C48.1987 155.572 37.0671 152.668 35.9099 152.502C34.7198 152.337 27.9344 149.948 25.7252 149.202C23.5225 148.456 21.0174 148.377 21.0174 148.377L23.6014 151.394C23.4634 151.314 21.2936 150.02 20.7281 149.624C20.1495 149.215 17.6642 148.925 16.5727 149.624C15.4747 150.324 14.2911 153.618 14.2911 153.618C14.4424 152.06 14.7843 150.053 15.5667 149.162C16.9475 147.604 18.9397 147.321 18.9397 147.321C18.9397 147.321 22.4179 147.169 23.9433 147.769C25.4687 148.377 36.7318 151.44 39.0528 152.013C41.3081 152.575 48.3105 155.526 48.7444 155.711" fill="#00DABE"/>
<path fill-rule="evenodd" clip-rule="evenodd" d="M81.8438 97.4421C81.8438 97.4421 68.9107 113.582 65.5179 122.95C62.1252 132.316 58.0421 143.696 58.0421 143.696C58.0421 143.696 57.7002 143.248 57.2399 142.541C57.1216 142.099 56.9309 140.838 57.7396 138.831C57.7396 138.831 61.7438 127.339 66.6942 117.094L66.7014 117.08C68.9107 112.512 71.3099 108.183 73.625 105.239C76.255 101.885 79.1677 99.3366 81.8438 97.4421" fill="#00DABE"/>
<path fill-rule="evenodd" clip-rule="evenodd" d="M98.6956 102.123L93.8564 122.031L82.3559 147.584L82.35 147.591C82.0344 147.974 71.9476 160.213 67.3852 165.025C62.7498 169.916 52.9595 171.573 48.975 171.791C44.9906 172.008 39.3097 169.798 39.3097 169.798C39.3097 169.798 51.0988 168.094 56.1879 166.9C61.277 165.704 70.607 155.717 70.607 155.717L88.8067 118.058C88.8067 118.058 93.8301 100.915 93.1397 94.445C94.8886 96.0168 97.2616 98.617 98.6956 102.123" fill="#00A48F"/>
<path fill-rule="evenodd" clip-rule="evenodd" d="M48.764 155.716C48.764 155.716 53.2982 154.768 55.3049 152.017C57.3116 149.265 57.4859 146.524 57.4859 146.524C57.4859 146.524 58.5247 144.662 57.7824 143.693C57.0401 142.725 50.8556 146.524 50.8556 146.524L48.764 155.716Z" fill="#00A48F"/>
<path fill-rule="evenodd" clip-rule="evenodd" d="M56.4371 145.545C56.4108 145.571 56.3779 145.604 56.345 145.63C56.345 145.638 56.3384 145.638 56.3384 145.638C55.7795 146.133 54.3659 146.937 54.3659 146.937C54.3659 146.937 55.03 147.063 55.3522 147.539C55.5034 147.743 55.5823 148.02 55.51 148.377C55.3522 149.169 54.2476 149.862 53.5375 150.225C53.1956 150.403 52.9457 150.503 52.9457 150.503C52.9457 150.503 53.0049 150.647 53.0246 150.905C53.0904 151.736 52.7682 153.756 48.764 155.717C48.764 155.717 48.7508 155.71 48.7179 155.704C48.238 155.499 44.1417 153.777 41.2553 152.727C40.9725 152.628 40.7029 152.529 40.4465 152.443C40.4728 152.41 40.5057 152.383 40.5386 152.351L40.7884 152.1C40.8739 152.014 40.9594 151.921 41.058 151.83L41.2881 151.598C41.7681 151.123 42.3204 150.581 42.9187 150.008C43.1028 149.829 43.2869 149.651 43.4776 149.472C43.7406 149.228 44.0036 148.977 44.2666 148.733C44.3916 148.614 44.5165 148.502 44.6414 148.383C44.7992 148.244 44.9504 148.099 45.1082 147.961C45.3647 147.73 45.6211 147.499 45.8709 147.274C46.0353 147.129 46.1997 146.99 46.3641 146.846C46.5745 146.667 46.7717 146.495 46.969 146.337C46.9887 146.324 47.0084 146.304 47.0281 146.291C47.1531 146.186 47.2714 146.086 47.3964 145.994C48.1065 145.42 48.7442 144.97 49.2242 144.727C50.0987 144.277 51.2428 143.802 52.4065 143.419C54.2344 142.799 56.1149 142.416 57.042 142.726C57.2326 142.785 57.3839 142.878 57.4825 143.01C58.4227 144.139 56.9039 145.083 56.4371 145.545" fill="#58BAD3"/>
<path fill-rule="evenodd" clip-rule="evenodd" d="M52.4066 143.419C51.1902 144.013 49.7371 144.779 48.764 145.492C47.2255 146.621 43.07 150.859 41.2553 152.727C40.9726 152.628 40.703 152.529 40.4466 152.443C40.4729 152.41 40.5058 152.384 40.5386 152.351L40.7885 152.1C40.874 152.014 40.9594 151.922 41.0581 151.829L41.2882 151.598C41.7682 151.123 42.3205 150.581 42.9188 150.007C43.1029 149.829 43.287 149.651 43.4777 149.472C43.7407 149.228 44.0037 148.977 44.2667 148.733C44.3916 148.614 44.5165 148.502 44.6415 148.383C44.7993 148.245 44.9505 148.099 45.1083 147.961C45.3647 147.73 45.6211 147.499 45.871 147.274C46.0354 147.129 46.1998 146.99 46.3641 146.845C46.568 146.674 46.7718 146.502 46.969 146.337C46.9888 146.324 47.0085 146.304 47.0282 146.291C47.1531 146.185 47.2715 146.086 47.3964 145.994C48.1065 145.419 48.7443 144.971 49.2243 144.726C50.0988 144.277 51.2428 143.802 52.4066 143.419" fill="#85E4E0"/>
<path fill-rule="evenodd" clip-rule="evenodd" d="M71.9067 84.0168C60.7456 91.2074 49.4582 90.2661 49.4582 90.2661C49.8191 88.6217 50.0354 87.114 50.1433 85.7529C50.5943 80.0521 49.2241 76.8268 49.2241 76.8268L68.6521 73.2913C68.5981 74.8993 68.7237 76.3152 68.9493 77.549C69.7698 81.9889 71.9067 84.0168 71.9067 84.0168" fill="#B57E65"/>
<path fill-rule="evenodd" clip-rule="evenodd" d="M68.9493 77.5491C66.0378 82.2174 59.2668 90.5401 50.1433 85.753C50.5943 80.0523 49.2241 76.8269 49.2241 76.8269L68.6521 73.2914C68.5981 74.8994 68.7237 76.3154 68.9493 77.5491" fill="#6F4C3C"/>
<path fill-rule="evenodd" clip-rule="evenodd" d="M76.5041 85.0785C76.5041 85.0785 50.3288 106.651 43.8721 117.08C43.8721 117.08 43.9642 95.2773 46.3049 87.4681C46.3115 87.4549 46.3181 87.4483 46.3181 87.4351L49.6516 86.4911L49.77 85.6462L50.1053 83.2764C50.1053 83.2764 50.1053 83.2698 50.1119 83.2632L50.2105 82.5437V82.5239L50.2171 82.4975C50.2171 82.4975 53.3205 85.0851 58.62 84.3656C60.2769 84.1411 61.9404 83.547 63.4527 82.8407C63.5579 82.7945 63.6631 82.7483 63.7617 82.6955C63.9589 82.6031 64.1496 82.5041 64.3403 82.405C64.4849 82.3324 64.6296 82.2592 64.7677 82.1806C64.8794 82.1212 64.9846 82.0618 65.0964 82.0024C65.2608 81.91 65.4186 81.8175 65.5764 81.7251C65.7079 81.6525 65.8394 81.5726 65.9643 81.5007C66.0169 81.4677 66.0695 81.4413 66.1221 81.4076C68.0552 80.2399 69.3373 79.1837 69.3373 79.1837L71.9082 84.0157L76.5041 85.0785Z" fill="white"/>
<path fill-rule="evenodd" clip-rule="evenodd" d="M66.1221 81.4079C62.6242 85.4478 56.5159 88.9662 49.7699 85.6465L50.1053 83.276C50.1053 83.276 50.1053 83.2694 50.1118 83.2635C50.1776 83.0318 50.217 82.7948 50.2105 82.544V82.5235L50.217 82.4971C50.217 82.4971 53.3205 85.0848 58.62 84.3652C60.2769 84.1415 61.9404 83.5467 63.4526 82.841C63.5578 82.7948 63.6565 82.748 63.7617 82.6951C63.9589 82.6034 64.1496 82.5037 64.3403 82.4054C64.4849 82.3321 64.6296 82.2595 64.7676 82.1809C64.8794 82.1209 64.9912 82.0614 65.0964 82.002C65.2608 81.9103 65.4186 81.8172 65.5764 81.7248C65.7079 81.6522 65.8394 81.5802 65.9643 81.501C66.0169 81.468 66.0695 81.4416 66.1221 81.4079" fill="#D0D0D0"/>
<path fill-rule="evenodd" clip-rule="evenodd" d="M76.9369 50.3555C76.7107 46.348 75.6968 42.2342 73.243 39.0082C70.5644 35.4865 66.5457 33.9233 62.3107 33.3233C57.2183 32.6024 51.3008 33.1734 47.0263 36.3222C44.9775 37.8312 42.6066 39.5798 41.502 41.9615C40.1172 44.9505 40.6991 48.8465 40.9187 52.0111C40.9194 52.0236 40.9253 52.0322 40.9266 52.0448C40.9187 52.7689 40.9227 53.4924 40.9181 54.2066C40.899 57.1706 40.6347 60.1252 40.874 63.0878C41.2777 68.0822 43.3081 72.674 46.3215 76.6129C48.8285 79.8903 52.4652 83.1282 56.808 83.0648C61.4079 82.9968 65.8533 79.3893 68.6234 75.9501C71.7104 72.1195 73.8059 67.4307 75.3175 62.7551C76.5983 58.7931 77.1716 54.5195 76.9369 50.3555" fill="#B57E65"/>
<path fill-rule="evenodd" clip-rule="evenodd" d="M59.0915 62.2549C58.6983 61.9935 58.2466 62.0015 57.8199 62.1295C57.8015 61.3948 57.7929 60.6667 57.6818 59.9379C57.6654 59.8284 57.4813 59.829 57.4642 59.9379C57.3333 60.7836 57.309 61.6245 57.334 62.482C57.3399 62.6847 57.5365 62.7758 57.7068 62.6979C59.4978 61.878 59.7832 64.6617 58.8824 65.6532C58.5727 65.9938 58.1835 66.046 57.7475 66.077C57.4589 66.0975 57.4076 66.4823 57.6805 66.582C58.7614 66.9754 59.6313 65.875 59.8338 64.9192C60.0219 64.0313 59.9121 62.8009 59.0915 62.2549" fill="#3A180F"/>
<path fill-rule="evenodd" clip-rule="evenodd" d="M61.629 71.5829C61.5206 71.7473 61.4127 71.9117 61.3134 72.0859C60.7999 73.9402 58.546 74.9357 56.7155 74.8538C54.3629 74.7535 52.4424 73.2642 51.9466 70.907C51.9105 70.7241 52.0637 70.606 52.1991 70.633C53.0552 71.1268 54.8942 72.0034 57.329 72.0213C59.4836 72.0397 60.8893 71.6925 61.6382 71.4278H61.6468C61.6738 71.4734 61.6738 71.5282 61.629 71.5829" fill="white"/>
<path fill-rule="evenodd" clip-rule="evenodd" d="M65.7385 54.5515C65.6892 54.3799 65.5208 54.2346 65.338 54.2419C65.1717 54.2498 64.9626 54.366 64.937 54.5515C64.9094 54.7541 64.8587 54.9489 64.8502 55.1535C64.8429 55.3436 64.8245 55.5331 64.8081 55.7225C64.7759 56.0955 64.7443 56.4698 64.7496 56.8447C64.7535 57.0949 64.9639 57.3345 65.2217 57.3226C65.482 57.3108 65.6872 57.1127 65.6938 56.8447C65.7023 56.4678 65.7556 56.0968 65.7944 55.7225C65.8128 55.5403 65.8279 55.3568 65.8358 55.1727C65.845 54.9594 65.797 54.7555 65.7385 54.5515" fill="#3A180F"/>
<path fill-rule="evenodd" clip-rule="evenodd" d="M68.3624 49.7638C68.0369 49.5037 67.5957 49.3617 67.2032 49.2383C66.7344 49.0911 66.2564 49.004 65.7665 48.9743C64.919 48.9228 63.936 49.0092 63.2812 49.6152C63.1411 49.7459 63.3252 49.9935 63.4863 49.8852C64.1556 49.435 65.0216 49.4205 65.7882 49.5479C66.1985 49.6152 66.6108 49.7142 67.0072 49.8403C67.3761 49.9578 67.7062 50.146 68.0652 50.2813C68.3426 50.3856 68.6004 49.9539 68.3624 49.7638" fill="#3A180F"/>
<path fill-rule="evenodd" clip-rule="evenodd" d="M51.6788 53.2944C51.7584 53.1353 51.9497 53.0225 52.1285 53.0641C52.291 53.1023 52.4751 53.2548 52.4672 53.4423C52.4586 53.6463 52.4731 53.8469 52.4442 54.0509C52.4179 54.2391 52.4014 54.4285 52.383 54.618C52.3488 54.9896 52.312 55.3645 52.2397 55.7309C52.191 55.9765 51.9405 56.1732 51.69 56.1144C51.4355 56.055 51.2698 55.822 51.3113 55.5573C51.3704 55.1857 51.3849 54.8107 51.4138 54.4358C51.4283 54.2529 51.4467 54.0701 51.4724 53.8872C51.5006 53.676 51.5841 53.4839 51.6788 53.2944" fill="#3A180F"/>
<path fill-rule="evenodd" clip-rule="evenodd" d="M49.9583 48.1032C50.3252 47.9071 50.7848 47.8484 51.1925 47.8002C51.6797 47.7414 52.1656 47.7434 52.6528 47.8048C53.495 47.9104 54.4465 48.1771 54.981 48.894C55.0954 49.0478 54.8699 49.2577 54.7312 49.1211C54.1545 48.5553 53.305 48.3817 52.5285 48.3646C52.113 48.3567 51.6895 48.3771 51.2766 48.4279C50.8933 48.4748 50.535 48.6002 50.1575 48.6669C49.8663 48.7184 49.6901 48.2464 49.9583 48.1032" fill="#3A180F"/>
<path fill-rule="evenodd" clip-rule="evenodd" d="M41.6415 62.0976C41.5166 61.4963 41.3555 61.0276 41.3299 60.3945C41.3108 59.9179 41.0906 59.5232 41.0432 59.0684C40.99 58.5581 41.395 58.2049 41.4805 57.7105C41.5304 57.4247 41.4936 57.1118 41.4344 56.8293C41.3476 56.4154 41.1714 55.9837 40.8151 55.814C41.1471 55.3816 41.3325 54.8984 41.2852 54.3373C41.2365 53.7617 41.0044 53.2132 40.9939 52.6329C40.9821 52.0111 41.2661 51.4249 41.3345 50.8104C41.4252 50.0004 41.2135 49.2043 41.1846 48.3983C41.18 48.2894 41.0761 48.2617 41.0038 48.3013C40.9143 48.191 40.75 48.1422 40.6178 48.2729C40.08 48.801 39.6657 49.1191 39.4422 49.8677C39.1759 50.7562 38.9964 51.6916 38.8379 52.6052C38.5125 54.4826 38.3816 56.3764 38.6098 58.2729C38.7689 59.5965 39.0845 60.9147 39.454 62.1953C39.6855 62.998 40.0313 64.3572 40.9886 64.5704C41.1175 64.5995 41.2286 64.5493 41.3023 64.4424C41.7553 63.7829 41.8007 62.8634 41.6415 62.0976" fill="#3A180F"/>
<path fill-rule="evenodd" clip-rule="evenodd" d="M78.4079 54.7075C78.2284 54.2223 77.7498 53.4658 77.1284 53.5833C76.2546 53.7477 76.5222 55.091 76.3243 55.6792C76.154 56.1841 75.8022 56.5327 75.7654 57.0892C75.7174 57.8173 75.9028 58.5011 75.795 59.2372C75.6951 59.9217 75.5307 60.5475 75.221 61.1693C74.9955 61.6235 74.7548 62.0651 74.7022 62.58C74.624 63.3437 75.1033 64.0573 74.7621 64.7854C74.6082 65.1142 74.4524 65.4436 74.338 65.7888C74.1677 66.3004 74.1019 66.9229 74.553 67.1447C74.599 67.2635 74.7147 67.3559 74.8535 67.3005C75.5997 67.0014 75.9265 66.074 76.2586 65.4053C76.7694 64.3814 77.1192 63.4375 77.3138 62.2975C77.542 60.9607 77.8662 59.6755 78.1942 58.3612C78.4743 57.2416 78.8255 55.8363 78.4079 54.7075" fill="#3A180F"/>
<path fill-rule="evenodd" clip-rule="evenodd" d="M72.6484 68.3778C73.0501 66.3783 73.1888 64.5432 73.1356 63.5101C73.657 62.7503 76.1253 59.1005 77.4002 56.3069L76.623 55.9491C75.5631 58.2727 73.5899 61.2994 72.7417 62.5641C71.6141 62.1476 66.4376 60.6531 59.8316 59.7052C53.5248 58.8008 44.8306 59.2972 42.914 59.4233C42.2453 58.2701 40.6581 55.3379 39.8849 52.234L39.0558 52.442C39.9736 56.1294 41.9369 59.4781 42.4018 60.2399C42.2572 61.2881 42.0448 63.2923 42.0967 65.6997C41.3169 63.3913 40.5279 60.9772 40.1374 59.5494L39.3128 59.7771C39.8967 61.9087 42.1914 69.3112 42.2065 69.4155C42.9699 74.6541 46.9787 78.8703 46.9787 78.8703C46.9787 78.8703 50.9237 83.0864 56.2686 83.598C61.6135 84.1083 68.9492 77.5494 71.0303 73.3761C71.2321 72.9728 71.4123 72.5444 71.5819 72.1081L71.5944 72.116C71.7226 71.8849 74.734 66.4496 75.6229 64.3451L75.8669 62.2605C75.4507 63.246 73.5005 66.7763 72.6484 68.3778" fill="white"/>
<path fill-rule="evenodd" clip-rule="evenodd" d="M81.718 54.9841C79.4502 64.4435 72.9468 69.6313 72.9468 69.6313C75.5506 65.1432 77.1417 56.1195 76.5039 53.0565C76.3073 52.1119 76.143 51.2016 75.8727 50.3039V50.2966C75.2481 48.2634 74.0449 46.2831 70.5213 44.0783C69.9164 43.6955 69.3115 43.3595 68.6993 43.069C64.1889 40.884 59.4292 40.9632 52.3669 42.2043C44.346 43.6103 42.1434 46.2508 40.7422 51.4855C40.7356 51.5112 40.7297 51.5376 40.7225 51.564C39.3943 56.7003 41.3346 66.3902 41.426 66.8463C38.1852 62.5681 36.8432 57.9473 36.4165 52.442C36.2258 50.0259 36.2127 47.4324 36.2916 44.6269C36.5414 35.4315 42.1434 28.1504 50.7955 24.3152C57.5816 21.3044 66.6414 21.2853 73.9206 26.0447C75.9194 27.3517 77.7867 29.0218 79.4305 31.0879C80.4996 32.4227 81.3044 33.8604 81.9086 35.3298L81.9224 35.3457L82.073 35.7153L82.1256 35.8474C85.5249 44.7919 81.718 54.9841 81.718 54.9841" fill="#00CCB2"/>
<path fill-rule="evenodd" clip-rule="evenodd" d="M81.7179 54.9841C79.4502 64.4435 72.9468 69.6313 72.9468 69.6313C75.5505 65.1432 77.1417 56.1195 76.5039 53.0565C76.3073 52.1119 76.143 51.2016 75.8727 50.3039V50.2966C75.8727 50.2966 78.6671 51.1217 79.0879 48.9638C79.5153 46.7986 77.9182 43.2268 77.3988 40.4154C76.8853 37.6033 77.6486 37.2593 78.2397 35.7285C78.8381 34.1971 79.128 33.4314 78.602 32.3224C78.1017 31.286 77.4843 30.0978 77.4047 29.9526L81.9224 35.3457L82.073 35.7153L82.1256 35.8474C85.5249 44.7919 81.7179 54.9841 81.7179 54.9841" fill="#00A48F"/>
<path fill-rule="evenodd" clip-rule="evenodd" d="M44.113 73.2913C44.113 73.2913 47.1849 75.8895 49.2238 76.4644C51.2634 77.0394 55.142 73.4022 58.2277 72.744C61.3133 72.0859 67.2394 72.5367 68.4558 69.6349C69.6729 66.7324 71.9064 63.2602 71.9064 63.2602C71.9064 63.2602 72.128 66.8558 71.2851 70.629C70.4421 74.4022 68.6333 75.7112 65.2926 79.3564C61.9524 83.0015 57.6622 83.4735 54.1472 82.5751C50.6328 81.6773 45.5194 77.9761 44.113 73.2913" fill="#F0F0F0"/>
<path fill-rule="evenodd" clip-rule="evenodd" d="M73.9203 26.0447C73.0656 25.8533 71.961 25.6619 69.6728 25.2526C65.5043 24.5067 66.1092 23.7205 63.2293 23.3779C60.356 23.034 57.8838 23.3779 53.5508 24.4869C49.2244 25.5952 50.329 26.19 49.2244 28.0647C48.1198 29.9388 45.9172 31.5567 42.9518 33.0479C39.9799 34.5331 40.3218 35.3055 38.4939 38.5407C36.6726 41.7746 37.4353 43.0559 37.2644 46.3762C37.1789 48.0721 36.7844 50.4881 36.4162 52.442C36.2255 50.026 36.2124 47.4318 36.2913 44.6263C36.5411 35.4316 42.1431 28.1499 50.7959 24.3153C57.5813 21.3045 66.6417 21.2853 73.9203 26.0447" fill="#00DABE"/>
<path fill-rule="evenodd" clip-rule="evenodd" d="M68.6995 43.0691C64.189 40.8835 59.4286 40.9634 52.367 42.2037C44.3455 43.6098 42.1428 46.2502 40.7423 51.4856C40.7358 51.5113 40.7292 51.5377 40.7226 51.5641C40.933 50.205 41.2092 48.7587 41.5445 47.7559C42.3532 45.3531 44.477 43.1411 46.8506 42.1186C49.2242 41.0954 50.4997 40.3297 53.7215 39.7283C56.9498 39.1342 58.5607 39.4781 61.1053 39.9858C63.6498 40.5006 65.4119 39.9858 67.0426 41.5172C67.5291 41.9734 68.1143 42.5212 68.6995 43.0691" fill="#00DABE"/>
<path fill-rule="evenodd" clip-rule="evenodd" d="M286.814 151.339C286.749 151.834 286.658 152.45 286.547 153.177C285.819 157.682 284.181 166.284 282.561 174.074C281.502 179.168 280.452 183.917 279.679 186.958C279.228 188.759 279.127 192.424 279.256 197.089C279.716 214.283 283.242 244.976 283.242 244.976C283.242 244.976 266.616 248.344 257.355 248.111C248.084 247.868 210.781 242.326 210.781 242.326C210.781 242.326 212.724 233.669 214.842 223.137C217.696 208.956 220.872 191.38 220.062 186.958C219.683 184.896 219.15 178.646 218.635 170.548C218.367 166.471 218.1 161.928 217.871 157.216C216.94 138.502 216.425 117.091 217.658 111.55C217.677 111.467 217.696 111.391 217.714 111.317C217.834 110.832 217.981 110.486 218.138 110.319L218.146 110.309C219.141 109.283 221.746 108.052 224.858 106.858C224.867 106.858 224.867 106.848 224.876 106.848C225.309 106.681 225.76 106.512 226.211 106.345L226.22 106.335C229.166 105.254 232.388 104.217 235.003 103.415C238.078 102.482 240.315 101.867 240.315 101.867L258.892 103.564L262.667 105.608L275.877 112.754C275.877 112.754 276.835 117.856 278.253 122.195C279.679 126.533 287.522 145.788 286.814 151.339" fill="#EDA1AB"/>
<path fill-rule="evenodd" clip-rule="evenodd" d="M286.547 153.177C285.82 157.682 284.181 166.284 282.561 174.074C281.502 179.168 280.452 183.916 279.679 186.958C279.228 188.758 279.127 192.424 279.256 197.089C271.329 199.608 245.35 207.78 238.253 209.161C232.278 210.318 220.908 218.509 214.841 223.136C217.696 208.956 220.871 191.38 220.061 186.958C219.5 183.851 218.57 171.294 217.871 157.216L228.052 128.809C228.052 128.809 231.459 153.933 230.924 158.523C230.851 159.166 230.796 159.922 230.75 160.715C233.143 162.068 237.507 164.418 239.762 164.923C242.975 165.65 265.548 162.394 265.548 162.394L264.306 167.871L268.393 162.637C268.393 162.637 281.493 157.655 286.547 153.177" fill="#DB909A"/>
<path fill-rule="evenodd" clip-rule="evenodd" d="M275.53 130.855L266.594 130.961L266.245 128.915L275.181 128.809L275.53 130.855Z" fill="#EB8991"/>
<path fill-rule="evenodd" clip-rule="evenodd" d="M275.181 130.595L266.245 130.7L265.896 128.654L274.831 128.548L275.181 130.595Z" fill="white"/>
<path fill-rule="evenodd" clip-rule="evenodd" d="M290.639 185.493C290.639 185.493 288.703 186.625 286.547 185.219C284.391 183.814 283.691 179.726 283.691 179.726L292.727 175.972C292.727 175.972 293.172 177.809 293.044 178.895C292.917 179.981 291.669 184.106 290.639 185.493" fill="#EB8991"/>
<path fill-rule="evenodd" clip-rule="evenodd" d="M296.478 169.928C296.471 170.06 296.464 170.198 296.445 170.33C295.886 177.605 290.981 184.991 290.639 185.493C290.757 185.216 291.744 182.965 291.901 181.77C291.941 181.454 291.967 180.76 291.941 179.87C291.875 177.17 291.356 172.614 289.436 170.951C289.265 170.806 289.087 170.654 288.89 170.502C286.766 168.845 283.38 167.07 282.039 166.383C282.019 166.205 281.993 165.974 281.953 165.75C281.874 165.307 281.743 164.891 281.519 164.925L279.797 148.996L277.127 124.314L275.878 112.756C275.878 112.756 282.571 115.449 286.858 122.129C289.225 125.825 291.868 134.215 293.788 142.903V142.909C293.841 143.246 295.504 153.901 296.208 162.317C296.458 165.334 296.589 168.06 296.478 169.928" fill="#FFAEB7"/>
<path fill-rule="evenodd" clip-rule="evenodd" d="M288.89 170.502C286.766 168.845 283.38 167.07 282.039 166.383C282.019 166.205 281.993 165.974 281.953 165.75C281.874 165.307 281.743 164.891 281.519 164.925L279.797 148.996V139.364L279.133 124.664C279.133 124.664 285.076 134.598 286.201 137.444C287.319 140.289 290.882 156.64 291.053 160.053C291.191 162.93 289.883 168.45 288.89 170.502" fill="#EB8991"/>
<path fill-rule="evenodd" clip-rule="evenodd" d="M267.264 175.296L275.646 135.423L292.334 131.997L283.952 171.871L267.264 175.296Z" fill="#3E5164"/>
<path fill-rule="evenodd" clip-rule="evenodd" d="M292.334 131.997L290.966 130.863L274.278 134.289L265.896 174.163L267.264 175.296L275.646 135.422L292.334 131.997Z" fill="white"/>
<path fill-rule="evenodd" clip-rule="evenodd" d="M291.941 179.869C291.731 180.094 291.514 180.305 291.303 180.49C289.101 182.45 281.887 183.388 281.887 183.388L282.059 166.693C282.059 166.693 282.052 166.568 282.039 166.383C283.498 167.129 287.397 169.175 289.435 170.951C291.355 172.615 291.875 177.169 291.941 179.869" fill="#0099B8"/>
<path fill-rule="evenodd" clip-rule="evenodd" d="M288.141 175.268V175.275C288.081 175.526 288.009 175.797 287.916 176.08C287.845 176.311 287.759 176.548 287.667 176.793C287.614 176.938 287.555 177.09 287.49 177.242C287.404 177.473 287.305 177.704 287.194 177.942C287.135 178.081 287.068 178.219 287.003 178.358C286.924 178.529 286.845 178.694 286.766 178.859C286.68 179.031 286.601 179.196 286.51 179.361C286.418 179.533 286.332 179.698 286.24 179.863C286.24 179.869 286.234 179.869 286.234 179.875C286.142 180.047 286.049 180.212 285.951 180.377C285.839 180.576 285.734 180.754 285.622 180.932C285.589 180.978 285.563 181.031 285.53 181.077C285.432 181.236 285.332 181.381 285.241 181.526C285.122 181.697 285.004 181.862 284.898 182.002C284.839 182.074 284.787 182.14 284.728 182.206C284.675 182.266 284.629 182.324 284.576 182.378C283.078 184.022 270.059 185.269 265.43 183.262C265.43 183.262 263.641 182.153 263.293 180.642C263.274 180.569 263.253 180.483 263.253 180.411C263.043 178.952 264.003 177.321 264.003 177.321C264.003 177.321 262.767 176.437 263.103 175.295C263.129 175.202 263.162 175.103 263.221 174.998C263.885 173.711 264.351 173.262 264.351 173.262L264.345 173.235C264.325 173.13 264.28 172.826 264.345 172.443C264.444 171.816 264.832 170.978 266.14 170.615C266.14 170.615 266.107 170.106 266.324 169.466C266.488 169.017 266.764 168.495 267.271 168.04C267.455 167.869 267.672 167.71 267.922 167.572C267.922 167.572 272.084 168.898 274.457 168.653C274.457 168.653 273.668 168.073 273.149 167.024C273.004 166.72 272.873 166.39 272.794 166.013C272.794 166.013 277.666 166.245 279.679 166.013C280.428 165.921 281.223 166.099 282.006 166.39C283.025 166.779 284.011 167.374 284.787 167.908H284.793C285.057 168.093 285.294 168.265 285.503 168.423C285.937 168.727 286.286 169.281 286.601 169.921C286.792 170.318 286.97 170.746 287.128 171.182C287.509 172.192 287.818 173.209 288.141 173.829C288.298 174.132 288.279 174.641 288.141 175.268" fill="#58BAD3"/>
<path fill-rule="evenodd" clip-rule="evenodd" d="M282.008 166.387C280.591 166.126 278.924 166.303 278.335 166.369C277.58 166.461 275.574 166.369 274.91 166.369C274.239 166.369 272.793 166.014 272.793 166.014C272.793 166.014 277.663 166.247 279.679 166.014C280.425 165.921 281.226 166.098 282.008 166.387" fill="#85E4E0"/>
<path fill-rule="evenodd" clip-rule="evenodd" d="M273.742 176.723C273.742 176.723 272.728 177.628 272.084 177.75C271.431 177.871 264.001 177.321 264.001 177.321C264.001 177.321 262.768 176.435 263.099 175.296C263.734 175.576 265.153 176.136 266.441 176.183C268.163 176.239 270.851 176.229 271.707 176.323C272.554 176.425 273.742 176.723 273.742 176.723" fill="#0099B8"/>
<path fill-rule="evenodd" clip-rule="evenodd" d="M271.578 173.505C271.578 173.505 270.003 173.683 269.046 173.748C268.098 173.804 264.351 173.262 264.351 173.262L264.342 173.235C264.324 173.132 264.278 172.824 264.342 172.442C265.18 172.628 267.233 173.066 267.96 173.141C268.899 173.235 271.578 173.505 271.578 173.505" fill="#0099B8"/>
<path fill-rule="evenodd" clip-rule="evenodd" d="M268.392 171.182L266.137 170.613C266.137 170.613 266.11 170.109 266.321 169.465L268.392 171.182Z" fill="#0099B8"/>
<path fill-rule="evenodd" clip-rule="evenodd" d="M281.566 168.085C281.566 168.085 277.893 168.952 274.459 168.654C274.459 168.654 273.668 168.075 273.152 167.022C273.189 167.03 273.336 167.04 273.907 167.022C274.8 167.003 276.576 167.991 277.644 168.085C278.713 168.178 281.566 168.085 281.566 168.085" fill="#0099B8"/>
<path fill-rule="evenodd" clip-rule="evenodd" d="M278.446 168.589C277.608 168.71 273.622 169.233 271.992 169.037C270.648 168.869 268.375 168.318 267.269 168.038C267.453 167.87 267.674 167.712 267.923 167.572C267.923 167.572 272.084 168.897 274.46 168.654C275.988 168.785 277.893 168.635 278.446 168.589" fill="#85E4E0"/>
<path fill-rule="evenodd" clip-rule="evenodd" d="M288.141 173.829C287.818 173.209 287.509 172.193 287.128 171.182C286.97 170.746 286.792 170.318 286.601 169.921C286.286 169.281 285.937 168.727 285.503 168.423C285.294 168.264 285.057 168.093 284.793 167.908H284.787C284.669 167.928 284.346 168.357 284.261 168.713C284.176 169.077 283.141 171.677 283.141 171.677H283.144C282.769 172.63 282.614 173.803 281.934 175.149C280.527 177.969 277.396 179.342 277.363 179.354C276.365 179.717 275.648 179.916 275.648 179.849C275.648 179.672 275.207 175.295 275.207 175.295L273.445 178.588C273.445 178.588 269.165 180.82 267.941 181.051C267.107 181.222 264.68 180.734 263.253 180.411C263.253 180.483 263.274 180.569 263.294 180.641C263.641 182.153 265.43 183.262 265.43 183.262C270.059 185.269 283.078 184.021 284.576 182.377C284.629 182.325 284.675 182.265 284.728 182.206C284.781 182.14 284.833 182.074 284.886 182.008C284.886 182.008 284.893 182.008 284.898 182.002C285.004 181.863 285.122 181.698 285.241 181.526C285.332 181.381 285.432 181.236 285.53 181.077C285.563 181.031 285.589 180.978 285.622 180.932C285.734 180.754 285.839 180.576 285.951 180.377C286.049 180.212 286.142 180.047 286.234 179.876C286.234 179.869 286.24 179.869 286.24 179.863C286.28 179.81 286.306 179.751 286.339 179.698C286.398 179.586 286.457 179.474 286.51 179.361C286.601 179.196 286.68 179.031 286.766 178.859C286.773 178.847 286.78 178.826 286.792 178.813C286.865 178.661 286.937 178.51 287.003 178.357C287.068 178.219 287.135 178.08 287.194 177.941C287.305 177.704 287.404 177.473 287.49 177.242C287.555 177.09 287.614 176.938 287.667 176.793C287.759 176.549 287.845 176.312 287.916 176.08C288.009 175.796 288.081 175.525 288.141 175.275V175.269C288.279 174.641 288.298 174.133 288.141 173.829" fill="#0099B8"/>
<path fill-rule="evenodd" clip-rule="evenodd" d="M270.552 76.1289C270.437 74.9051 269.94 73.8225 268.747 73.5928C267.749 73.4007 266.573 73.7314 265.921 74.6219C265.044 75.1678 264.797 77.6815 264.712 78.3773C264.621 79.1239 264.576 79.8751 264.493 80.6223C264.403 81.4429 264.029 82.4891 263.95 83.4219C263.914 83.8444 263.933 84.3117 264.165 84.6675C264.481 85.1507 265.043 85.2194 265.54 85.1151C266.665 84.8801 267.702 83.9869 268.46 83.0892C269.997 81.2666 270.785 78.6123 270.552 76.1289" fill="#FFD3D1"/>
<path fill-rule="evenodd" clip-rule="evenodd" d="M259.012 92.2295C258.671 93.7781 258.662 96.8662 258.736 99.6835C258.818 102.8 258.892 103.566 258.892 103.566C258.892 103.566 258.183 108.35 251.711 108.947C245.248 109.554 240.315 101.867 240.315 101.867C240.766 100.439 241.106 98.6293 241.355 96.9691C241.741 94.431 241.907 92.2295 241.907 92.2295C241.907 92.2295 259.73 88.9732 259.012 92.2295" fill="#FFD3D1"/>
<path fill-rule="evenodd" clip-rule="evenodd" d="M259.012 92.2295C258.671 93.7781 258.662 96.8662 258.736 99.6835C256.922 101.81 254.436 103.835 251.711 103.537C247.882 103.117 243.61 99.2729 241.355 96.9691C241.741 94.431 241.907 92.2295 241.907 92.2295C241.907 92.2295 259.73 88.9732 259.012 92.2295" fill="#FF9BA1"/>
<path fill-rule="evenodd" clip-rule="evenodd" d="M268.193 63.9903C268.225 60.5036 267.663 56.9383 265.511 54.1751C263.259 51.2845 259.747 49.7015 256.225 49.1265C248.639 47.8888 240.345 50.5214 236.257 57.4486C234.887 59.7696 233.927 62.4991 233.473 65.2795C233.385 65.1957 232.528 72.2688 232.389 75.6955C232.262 78.8066 232.446 81.9474 233.422 84.9199C235.081 89.9651 238.81 93.5858 242.984 96.5953C245.056 98.0891 247.305 99.7856 249.898 100.141C252.441 100.49 254.614 99.241 256.472 97.5967C260.911 93.6697 265.198 88.6145 267.103 82.8735C268.217 79.5116 268.14 76.0651 268.302 72.5738C268.433 69.7564 268.886 66.7674 268.193 63.9903" fill="#FAE0BD"/>
<path fill-rule="evenodd" clip-rule="evenodd" d="M235.543 75.3928C235.436 74.3973 234.967 72.8546 233.923 72.5147C233.874 72.4982 233.829 72.5021 233.785 72.512C233.49 72.2487 233.13 72.0638 232.714 71.9833C231.926 71.8308 230.982 71.9602 230.371 72.5233C229.62 73.2137 229.361 74.4488 229.225 75.4185C229.072 76.509 229.066 77.6246 229.196 78.7191C229.458 80.9463 230.661 83.2052 232.785 84.1003C233.576 84.4337 234.323 84.3822 234.591 83.4541C234.738 82.9412 234.805 82.3926 234.916 81.8705C235.079 81.1014 235.242 80.3304 235.353 79.5515C235.544 78.2141 235.689 76.7434 235.543 75.3928" fill="#FFD3D1"/>
<path fill-rule="evenodd" clip-rule="evenodd" d="M253.794 90.0152C253.508 89.9914 253.324 90.1663 253.099 90.3129C252.88 90.4561 252.647 90.5802 252.405 90.6786C251.901 90.8819 251.36 91.0014 250.819 91.0265C250.279 91.0515 249.743 90.9862 249.226 90.8271C248.974 90.7492 248.734 90.6423 248.509 90.5017C248.455 90.4687 248.407 90.4271 248.347 90.404C248.327 90.396 248.248 90.367 248.231 90.363C248.106 90.303 247.987 90.2013 247.883 90.1135C247.712 89.9689 247.421 90.1531 247.555 90.3696C247.637 90.4997 247.724 90.6357 247.827 90.7492C247.908 90.8383 247.956 90.9466 248.104 91.0581C248.347 91.241 248.609 91.3849 248.889 91.5031C249.484 91.7552 250.137 91.841 250.78 91.8159C251.429 91.7895 252.079 91.6569 252.682 91.4087C253.151 91.2152 254.033 90.874 254.038 90.2634C254.04 90.1208 253.925 90.0264 253.794 90.0152" fill="#FF6969"/>
<path fill-rule="evenodd" clip-rule="evenodd" d="M253.356 83.8615C253.245 83.3413 252.895 83.0271 252.554 82.6548C252.44 82.53 252.425 82.3102 252.401 82.0983C252.358 81.7095 252.342 81.3266 252.27 80.9418C252.242 80.7952 252.007 80.7959 251.978 80.9418C251.913 81.2784 251.863 81.6072 251.84 81.9498C251.824 82.2046 251.817 82.4752 251.899 82.7208C252.032 83.1175 252.418 83.3301 252.603 83.6945C252.68 83.845 252.72 84.0007 252.723 84.1506C252.727 84.3044 252.707 84.41 252.638 84.5123C252.625 84.5275 252.611 84.5414 252.597 84.5552C252.586 84.5638 252.587 84.5638 252.583 84.5671C252.578 84.5704 252.578 84.5698 252.567 84.577C252.555 84.5843 252.543 84.5902 252.531 84.5962C252.528 84.5962 252.52 84.5988 252.502 84.6054C252.49 84.6087 252.448 84.6133 252.439 84.6146C252.353 84.6186 252.343 84.6166 252.237 84.5836C252.079 84.5354 251.961 84.5447 251.804 84.5922C251.609 84.651 251.522 84.8728 251.619 85.053C251.713 85.2266 251.824 85.3355 252.022 85.3725C252.155 85.3975 252.289 85.4121 252.424 85.3982C252.66 85.3731 252.887 85.2873 253.058 85.115C253.381 84.7909 253.448 84.2958 253.356 83.8615" fill="#FF9BA1"/>
<path fill-rule="evenodd" clip-rule="evenodd" d="M258.01 74.556C257.821 74.2768 257.271 74.3527 257.087 74.5976C257.058 74.6359 257.027 74.6735 256.999 74.7112C256.921 74.8194 256.916 74.8999 256.901 75.0174C256.891 75.1013 256.881 75.1851 256.872 75.2683C256.849 75.4577 256.84 75.6446 256.836 75.8347C256.831 76.0175 256.829 76.1997 256.83 76.3826C256.831 76.4737 256.832 76.5654 256.835 76.6572C256.839 76.7865 256.875 76.9113 256.904 77.0387C256.95 77.2374 257.288 77.3879 257.543 77.3674C257.803 77.347 258.12 77.1978 258.152 76.9813C258.21 76.5786 258.19 76.1759 258.204 75.7726C258.211 75.5898 258.217 75.4102 258.21 75.2287C258.207 75.1389 258.208 75.0478 258.2 74.958C258.185 74.8016 258.101 74.6894 258.01 74.556" fill="#00143B"/>
<path fill-rule="evenodd" clip-rule="evenodd" d="M260.788 70.0152C260.601 69.8574 260.421 69.6878 260.221 69.5471C259.677 69.1656 258.943 69.0653 258.297 69.0362C256.991 68.9775 255.817 69.7353 255.164 70.8575C255.026 71.0964 255.398 71.3196 255.564 71.1103C256.26 70.231 257.393 69.7544 258.496 69.864C258.999 69.9135 259.51 70.0053 259.91 70.3327C260.178 70.5532 260.676 71.1578 261.065 70.9671C261.262 70.8707 261.332 70.6918 261.279 70.4792C261.227 70.2753 260.943 70.1452 260.788 70.0152" fill="#FF9043"/>
<path fill-rule="evenodd" clip-rule="evenodd" d="M243.393 74.556C243.582 74.2768 244.133 74.3527 244.317 74.5976C244.345 74.6359 244.377 74.6735 244.405 74.7112C244.482 74.8194 244.488 74.8999 244.502 75.0174C244.513 75.1013 244.523 75.1851 244.532 75.2683C244.554 75.4577 244.563 75.6446 244.568 75.8347C244.572 76.0175 244.575 76.1997 244.573 76.3826C244.573 76.4737 244.571 76.5654 244.569 76.6572C244.565 76.7865 244.529 76.9113 244.5 77.0387C244.453 77.2374 244.116 77.3879 243.86 77.3674C243.601 77.347 243.283 77.1978 243.252 76.9813C243.194 76.5786 243.214 76.1759 243.199 75.7726C243.193 75.5898 243.187 75.4102 243.194 75.2287C243.197 75.1389 243.196 75.0478 243.204 74.958C243.219 74.8016 243.302 74.6894 243.393 74.556" fill="#00143B"/>
<path fill-rule="evenodd" clip-rule="evenodd" d="M240.615 70.0152C240.803 69.8574 240.983 69.6878 241.183 69.5471C241.727 69.1656 242.461 69.0653 243.107 69.0362C244.412 68.9775 245.586 69.7353 246.24 70.8575C246.378 71.0964 246.005 71.3196 245.84 71.1103C245.144 70.231 244.01 69.7544 242.907 69.864C242.404 69.9135 241.894 70.0053 241.494 70.3327C241.226 70.5532 240.728 71.1578 240.339 70.9671C240.141 70.8707 240.072 70.6918 240.126 70.4792C240.177 70.2753 240.461 70.1452 240.615 70.0152" fill="#FF9043"/>
<path fill-rule="evenodd" clip-rule="evenodd" d="M262.874 82.9802C262.874 83.4957 261.903 83.9136 260.706 83.9136C259.508 83.9136 258.538 83.4957 258.538 82.9802C258.538 82.4653 259.508 82.0475 260.706 82.0475C261.903 82.0475 262.874 82.4653 262.874 82.9802" fill="#FFBCC1"/>
<path fill-rule="evenodd" clip-rule="evenodd" d="M243.987 82.9802C243.987 83.4957 243.016 83.9136 241.819 83.9136C240.622 83.9136 239.651 83.4957 239.651 82.9802C239.651 82.4653 240.622 82.0475 241.819 82.0475C243.016 82.0475 243.987 82.4653 243.987 82.9802" fill="#FFBCC1"/>
<path fill-rule="evenodd" clip-rule="evenodd" d="M265.489 85.502L264.689 85.199C264.711 85.1409 266.889 79.3135 267.553 75.23L268.396 75.368C267.718 79.5366 265.58 85.2604 265.489 85.502" fill="white"/>
<path fill-rule="evenodd" clip-rule="evenodd" d="M265.766 83.7306C265.766 83.7306 265.726 84.0467 265.641 84.5557C265.476 85.6317 265.128 87.5718 264.582 89.0973C262.886 93.8692 256.1 101.111 252.957 101.705C249.709 102.319 246.343 101.111 242.352 98.2128C241.747 97.7712 241.155 97.282 240.596 96.7605C237.46 93.9022 235.139 90.2914 235.139 90.2914C235.139 90.2914 235.652 83.988 236.671 83.1364C237.69 82.2849 256.1 77.6839 265.766 83.7306" fill="white"/>
<path fill-rule="evenodd" clip-rule="evenodd" d="M265.64 84.5557C265.476 85.6317 265.128 87.5717 264.582 89.0973C262.886 93.8692 256.1 101.111 252.957 101.705C249.71 102.319 246.343 101.111 242.351 98.2128C241.747 97.7712 241.155 97.282 240.596 96.7605L238.959 94.1201C238.959 94.1201 240.649 95.5987 241.82 95.7314C241.82 95.7314 246.52 96.2918 247.704 96.041C248.888 95.7842 250.196 92.6553 250.196 92.6553C250.196 92.6553 255.85 90.9845 257.52 90.9845C259.19 90.9845 261.228 88.1863 261.196 86.3974C261.163 84.6085 261.196 82.073 261.196 82.073C261.196 82.073 263.891 82.9245 265.64 84.5557" fill="#F0F0F0"/>
<path fill-rule="evenodd" clip-rule="evenodd" d="M236.616 83.7319C236.581 83.6513 233.138 75.6574 231.821 73.7562L232.522 73.2664C233.889 75.2375 237.258 83.0592 237.4 83.3913L236.616 83.7319Z" fill="white"/>
<path fill-rule="evenodd" clip-rule="evenodd" d="M235.141 90.2904C235.109 90.235 231.965 84.6696 230.526 80.4211L231.336 80.1451C232.748 84.3171 235.853 89.8105 235.884 89.866L235.141 90.2904Z" fill="white"/>
<path fill-rule="evenodd" clip-rule="evenodd" d="M270.861 65.1616C270.348 71.4657 266.68 82.0467 266.68 82.0467C267.166 79.5976 267.238 75.9406 266.436 72.8982C266.048 71.4063 265.45 70.0663 264.582 69.082C263.905 68.3163 262.748 67.6701 261.295 67.1347V67.1281C257.073 65.5775 250.354 64.9966 245.745 65.5049C239.551 66.1848 236.328 68.8253 234.547 73.083C233.088 76.5677 233.351 83.862 233.489 86.3975C233.528 86.952 233.548 87.2946 233.548 87.2946C233.548 87.2946 229.879 84.7538 227.59 80.4954C226.689 78.8187 226.131 76.0667 225.842 73.0962C225.395 68.5018 225.599 63.3985 226.184 61.0095C226.19 60.9956 226.196 60.9897 226.196 60.9758C226.756 57.4053 228.11 54.1113 230.135 51.2794C234.041 45.8269 244.048 40.1229 256.52 43.9515C258.27 44.4928 259.828 45.1734 261.196 45.9655C264.01 47.5821 266.068 49.6622 267.554 51.9191C270.5 56.3953 271.15 61.5567 270.861 65.1616" fill="#00CCB2"/>
<path fill-rule="evenodd" clip-rule="evenodd" d="M270.861 65.1616C270.348 71.4657 266.68 82.0467 266.68 82.0467C267.166 79.5976 267.238 75.9406 266.436 72.8982C266.745 72.6863 267.035 72.3767 267.265 71.9205C268.231 70.0399 268.422 67.2278 268.481 65.5702C268.546 63.9074 269.31 64.0196 269.5 62.0122C269.644 60.4682 268.96 55.3847 267.554 51.9191C270.5 56.3953 271.15 61.5567 270.861 65.1616" fill="#00A48F"/>
<path fill-rule="evenodd" clip-rule="evenodd" d="M261.295 67.1284C257.073 65.5772 250.353 64.9969 245.745 65.5046C239.551 66.1845 236.329 68.8249 234.547 73.0833C233.088 76.5681 233.351 83.8623 233.489 86.3971C233.357 84.4234 233.008 79.763 232.66 78.5022C232.213 76.879 232.917 72.7922 234.061 71.1947C235.204 69.5907 235.967 67.4189 237.4 66.0789C238.834 64.7388 239.531 64.7388 243.194 64.2899C246.849 63.8417 248.671 63.2272 250.715 63.6628C252.766 64.0985 254.292 64.356 256.139 64.7388C257.987 65.1217 261.295 67.1284 261.295 67.1284" fill="#00DABE"/>
<path fill-rule="evenodd" clip-rule="evenodd" d="M256.521 43.9517C244.048 40.123 234.041 45.827 230.135 51.2796C228.11 54.1115 226.755 57.4054 226.196 60.976C226.196 60.9898 226.19 60.9958 226.183 61.0096C225.599 63.3986 225.394 68.5013 225.842 73.0957C226.236 69.7561 226.973 63.4653 227.248 61.4255C227.545 59.2359 228.784 56.2073 230.626 53.4956C230.232 55.0732 230.527 56.2047 230.527 56.2047C230.784 58.3857 232.787 56.8166 233.805 55.2832C234.824 53.7504 236.987 52.1529 238.959 50.0636C240.782 48.1328 240.647 45.9947 239.857 45.4277C241.241 44.8468 242.795 44.4263 244.574 44.2487C250.537 43.6553 252.714 44.8296 255.759 44.8032C257.047 44.7966 259.17 45.3386 261.195 45.9657C259.828 45.1735 258.27 44.4929 256.521 43.9517" fill="#00DABE"/>
<path fill-rule="evenodd" clip-rule="evenodd" d="M262.669 105.607C261.899 110.392 260.045 119.482 256.396 124.664C256.396 124.664 240.523 113.917 235.001 103.415C240.675 101.593 240.761 100.2 240.761 100.2C241.819 100.999 242.838 101.652 243.825 102.187C249.387 105.21 253.76 104.405 256.311 103.329C257.921 102.649 258.803 101.864 258.803 101.864C259.23 103.481 262.228 105.336 262.623 105.58C262.655 105.6 262.669 105.607 262.669 105.607" fill="white"/>
<path fill-rule="evenodd" clip-rule="evenodd" d="M287.753 177.078L287.744 177.096C287.541 177.685 287.246 178.365 286.823 179.14V179.149C285.994 180.651 284.697 182.47 282.653 184.467C282.349 184.756 282.027 185.045 281.704 185.335C275.647 190.746 261.921 195.979 256.756 196.343C254.51 196.502 246.427 194.794 237.828 192.695C237.765 192.686 237.737 192.676 237.737 192.676C226.561 189.952 214.565 186.603 213.461 185.875C208.646 182.703 206.335 177.75 205.801 174.998C205.7 174.504 205.636 173.86 205.599 173.141C205.406 169.848 205.718 164.923 205.718 164.923L223.79 167.45L223.321 171.276L223.081 173.263C223.081 173.263 231.1 177.209 237.516 181.006C243.924 184.803 255.863 187.312 255.863 187.312L255.873 187.302C259.619 182.983 266.017 181.715 266.791 181.006C267.564 180.287 273.502 174.317 274.57 174.14C275.647 173.953 275.288 176.118 274.22 178.832C273.198 181.425 270.132 183.525 269.884 183.693C270.206 183.609 275.417 182.107 278.575 180.287C278.575 180.287 278.584 180.287 278.602 180.278C279.514 179.746 280.25 179.196 280.637 178.646C282.413 176.118 284.374 172.152 285.442 172.152C285.571 172.152 285.682 172.19 285.792 172.264C286.584 172.787 286.86 174.998 286.86 174.998C286.86 174.998 287.937 174.494 288.112 174.998C288.176 175.185 288.149 175.931 287.753 177.078" fill="#58BAD3"/>
<path fill-rule="evenodd" clip-rule="evenodd" d="M285.792 172.264C284.936 172.889 283.398 174.97 282.192 177.078C280.857 179.402 278.841 180.194 278.602 180.278C279.513 179.746 280.25 179.196 280.636 178.646C282.413 176.118 284.374 172.152 285.442 172.152C285.571 172.152 285.681 172.19 285.792 172.264" fill="#85E4E0"/>
<path fill-rule="evenodd" clip-rule="evenodd" d="M274.57 174.14C274.57 174.14 271.707 176.323 270.565 178.86C269.424 181.398 265.934 182.35 263.044 183.525C260.246 184.663 256.13 187.154 255.872 187.302C259.62 182.983 266.017 181.715 266.791 181.006C267.564 180.287 273.502 174.317 274.57 174.14" fill="#85E4E0"/>
<path fill-rule="evenodd" clip-rule="evenodd" d="M287.744 177.097C287.541 177.685 287.246 178.365 286.823 179.14V179.149C285.994 180.651 284.696 182.471 282.653 184.467C282.349 184.757 282.027 185.045 281.704 185.334C275.647 190.746 261.921 195.979 256.756 196.343C254.51 196.501 246.427 194.794 237.829 192.695C239.136 192.9 254.16 195.242 257.236 194.897C260.439 194.543 275.26 188.865 279.117 186.351C285.621 182.114 287.458 177.507 287.744 177.097" fill="#0099B8"/>
<path fill-rule="evenodd" clip-rule="evenodd" d="M254.489 194.848C254.41 195.343 254.325 195.791 254.239 196.168C254.036 197.071 253.851 197.613 253.851 197.613C253.851 197.613 252.957 197.356 250.413 196.973C247.869 196.59 215.546 189.176 212.106 186.88C212.1 186.88 212.1 186.873 212.094 186.873C208.668 184.57 205.419 179.189 204.854 175.974C204.776 175.519 204.69 174.582 204.624 173.255C204.23 165.169 204.453 142.481 209.713 124.361C212.981 113.106 217.853 110.478 218.136 110.319L218.149 110.307C218.379 110.386 218.589 110.465 218.8 110.564C218.852 110.577 218.912 110.597 218.964 110.623C229.418 115.099 229.221 134.902 227.354 150.217C226.986 153.227 226.552 156.066 226.124 158.574C226.072 158.89 226.013 159.201 225.954 159.518C225.164 164.047 224.408 167.38 224.132 168.535C224.093 168.687 224.06 168.839 224.027 168.984C223.527 171.301 223.179 172.826 223.179 172.826C223.179 172.826 230.05 175.764 237.828 180.536C245.606 185.302 254.036 186.727 254.036 186.727C254.055 186.788 254.075 186.854 254.089 186.912C254.121 187.005 254.147 187.098 254.174 187.19C254.976 190.015 254.805 192.847 254.489 194.848" fill="#FCB0BA"/>
<path fill-rule="evenodd" clip-rule="evenodd" d="M229.623 189.52C232.85 190.656 246.777 193.844 248.151 194.161C246.625 193.923 230.116 191.283 220.187 188.84C217.242 188.121 214.526 187.5 212.094 186.873C208.668 184.569 205.419 179.189 204.854 175.974C204.776 175.519 204.689 174.582 204.624 173.255C205.433 174.258 209.811 179.717 211.81 181.949C214.02 184.411 226.23 188.325 229.623 189.52" fill="#DB909A"/>
<path fill-rule="evenodd" clip-rule="evenodd" d="M111.247 202.037L110.372 212.527L109.229 226.172L108.19 238.575C108.124 238.588 108.052 238.594 107.973 238.602C107.427 238.66 105.921 238.806 104.501 238.7C103.159 238.607 100.95 236.984 99.234 235.208C99.2209 235.195 99.2018 235.175 99.1814 235.155C99.1025 235.083 99.0302 234.997 98.9513 234.904C98.4976 234.423 98.09 233.934 97.7546 233.465C96.0977 231.161 94.573 225.927 94.4474 222.606C94.356 220.316 94.5526 211.662 94.6775 206.486V206.44C94.7373 204.117 94.7827 202.506 94.7827 202.506L111.247 202.037Z" fill="#58BAD3"/>
<path fill-rule="evenodd" clip-rule="evenodd" d="M109.229 226.171L108.19 238.575C108.123 238.588 108.052 238.594 107.973 238.601C106.276 238.747 102.114 237.333 100.976 235.379C99.7926 233.34 100.214 227.458 100.556 224.904C100.891 222.349 102.167 218.428 102.508 217.154C102.792 216.071 103.08 214.025 103.16 213.411C103.06 214.5 102.844 220.032 102.844 221.755C102.844 223.629 103.778 225.755 104.205 226.27C104.626 226.779 106.493 226.693 107.084 226.693C107.499 226.693 108.584 226.369 109.229 226.171" fill="#0099B8"/>
<path fill-rule="evenodd" clip-rule="evenodd" d="M98.9512 234.904C98.4981 234.423 98.0898 233.934 97.7552 233.465C96.0976 231.161 94.5728 225.927 94.4472 222.606C94.3558 220.316 94.5531 211.662 94.6774 206.486C94.7109 207.298 95.1442 217.992 95.1442 219.279C95.1442 220.626 96.0384 227.009 96.3547 228.356C96.6571 229.61 97.8143 233.472 98.9512 234.904" fill="#85E4E0"/>
<path fill-rule="evenodd" clip-rule="evenodd" d="M111.247 202.037L110.372 212.527C109.767 210.176 109.044 207.108 108.571 206.486C107.809 205.483 94.7827 202.506 94.7827 202.506L111.247 202.037Z" fill="#0099B8"/>
<path fill-rule="evenodd" clip-rule="evenodd" d="M111.247 203.015L100.746 202.691L94.7827 202.506L94.4474 199.093L103.988 199.238L110.99 199.351L111.247 203.015Z" fill="#00CCB2"/>
<path fill-rule="evenodd" clip-rule="evenodd" d="M111.247 203.015L100.746 202.691L103.988 199.238L110.99 199.351L111.247 203.015Z" fill="#00A48F"/>
<path fill-rule="evenodd" clip-rule="evenodd" d="M115.06 127.55C114.666 133.452 114.199 141.115 113.726 149.235C113.706 149.678 113.679 150.113 113.653 150.555C112.332 173.442 110.991 199.351 110.991 199.351L103.988 199.238L94.4473 199.093C94.4473 199.093 91.3899 192.71 91.3899 187.594C91.3899 182.557 92.6266 159.902 92.6654 150.192V149.776C92.6654 149.492 92.672 149.189 92.6786 148.872C92.9817 138.594 98.1102 110.81 101.319 98.4193C104.626 85.6395 114.554 73.8895 114.554 73.8895C114.554 73.8895 114.85 78.4245 115.139 85.2897C115.593 96.3664 116.007 113.516 115.06 127.55" fill="white"/>
<path fill-rule="evenodd" clip-rule="evenodd" d="M115.06 127.55C113.535 150.291 110.991 199.351 110.991 199.351L103.988 199.238L107.427 194.75C107.427 194.75 107.683 167.923 107.683 161.533C107.683 155.143 108.952 136.746 110.484 118.348C111.608 104.816 113.962 91.4287 115.139 85.2897C115.593 96.3664 116.007 113.516 115.06 127.55" fill="#D0D0D0"/>
<path fill-rule="evenodd" clip-rule="evenodd" d="M113.726 149.235C113.706 149.678 113.68 150.113 113.653 150.555C104.343 150.324 95.5852 150.225 92.6659 150.192V149.776C92.6659 149.493 92.6718 149.189 92.6784 148.872C95.6115 148.905 104.402 149.004 113.726 149.235" fill="#B4B4B4"/>
<path fill-rule="evenodd" clip-rule="evenodd" d="M202.936 223.696C202.818 226.871 201.358 231.881 199.767 234.085C199.451 234.535 199.057 234.997 198.623 235.458C198.55 235.552 198.478 235.631 198.406 235.703C198.386 235.723 198.366 235.736 198.353 235.75C196.709 237.453 194.599 239.003 193.317 239.096C191.956 239.195 190.516 239.057 189.996 238.997C189.917 238.991 189.852 238.983 189.786 238.971L188.793 227.101L188.412 222.56L186.86 204.011L202.614 204.46C202.614 204.46 202.66 205.998 202.712 208.223V208.269C202.831 213.22 203.021 221.504 202.936 223.696" fill="#58BAD3"/>
<path fill-rule="evenodd" clip-rule="evenodd" d="M188.791 227.104L189.785 238.972C189.848 238.985 189.918 238.992 189.993 238.999C191.617 239.137 195.599 237.785 196.687 235.916C197.819 233.964 197.417 228.336 197.09 225.891C196.769 223.447 195.548 219.695 195.221 218.476C194.951 217.44 194.674 215.482 194.598 214.895C194.693 215.937 194.901 221.23 194.901 222.879C194.901 224.672 194.007 226.706 193.598 227.199C193.195 227.686 191.408 227.603 190.843 227.603C190.446 227.603 189.408 227.294 188.791 227.104" fill="#0099B8"/>
<path fill-rule="evenodd" clip-rule="evenodd" d="M198.625 235.461C199.059 235 199.449 234.532 199.77 234.084C201.355 231.879 202.815 226.871 202.935 223.693C203.022 221.502 202.834 213.221 202.715 208.269C202.683 209.045 202.267 219.278 202.267 220.51C202.267 221.799 201.412 227.907 201.11 229.195C200.821 230.395 199.713 234.09 198.625 235.461" fill="#85E4E0"/>
<path fill-rule="evenodd" clip-rule="evenodd" d="M197.025 205.826C194.652 206.249 188.451 207.866 188.451 207.866C188.451 207.866 188.872 211.358 188.793 213.49C188.708 215.622 188.451 222.606 188.451 222.606L188.411 222.56L186.86 204.011L202.614 204.46C202.614 204.46 199.392 205.397 197.025 205.826" fill="#0099B8"/>
<path fill-rule="evenodd" clip-rule="evenodd" d="M203.127 200.882L202.614 204.46C202.614 204.46 200.786 204.532 198.34 204.598C193.783 204.724 187.07 204.823 186.071 204.374V200.631L195.112 200.763L203.127 200.882Z" fill="#00CCB2"/>
<path fill-rule="evenodd" clip-rule="evenodd" d="M198.34 204.598C193.783 204.724 187.07 204.823 186.071 204.374V200.631L195.111 200.763L198.34 204.598Z" fill="#00A48F"/>
<path fill-rule="evenodd" clip-rule="evenodd" d="M203.127 200.882C203.127 200.882 200.076 201.167 195.756 201.159C192.909 201.159 189.503 201.04 186.071 200.631C186.071 200.631 183.783 145.182 185.821 118.863C186.603 108.724 187.123 99.7262 187.465 92.4914C188.011 80.9394 188.109 73.8894 188.109 73.8894C188.109 73.8894 193.455 76.6949 198.8 84.1086C204.146 91.521 208.472 122.692 208.978 147.479C208.992 148.08 208.998 148.68 209.011 149.268C209.018 149.71 209.024 150.152 209.031 150.589C209.353 173.586 207.755 188.407 203.127 200.882" fill="white"/>
<path fill-rule="evenodd" clip-rule="evenodd" d="M190.397 176.101C190.397 176.101 190.795 164.708 191.157 151.422L204.398 149.523L191.196 149.989C191.397 142.436 191.583 134.391 191.673 127.55C191.929 108.129 188.3 89.6668 188.3 89.6668L187.465 92.4914C187.123 99.7262 186.603 108.724 185.821 118.863C183.783 145.182 186.071 200.631 186.071 200.631C189.503 201.04 192.909 201.159 195.756 201.159L190.91 197.304L190.397 176.101Z" fill="#D0D0D0"/>
<path fill-rule="evenodd" clip-rule="evenodd" d="M209.031 150.588C197.136 150.285 185.683 150.186 185.558 150.186L185.571 148.865C185.696 148.865 197.13 148.964 209.012 149.268C209.018 149.71 209.024 150.153 209.031 150.588" fill="#B4B4B4"/>
<path fill-rule="evenodd" clip-rule="evenodd" d="M121.256 69.288L114.554 73.8877C114.554 73.8877 112.772 122.949 112.262 134.448C111.753 145.946 112.772 177.632 112.772 177.632L107.427 243.302L189.636 244.58C189.636 244.58 186.073 176.099 186.073 175.076C186.073 174.055 189.381 115.538 189.636 105.317C189.891 95.0964 188.109 73.8877 188.109 73.8877L178.607 71.1621L121.256 69.288Z" fill="white"/>
<path fill-rule="evenodd" clip-rule="evenodd" d="M175.129 132.919H161.635V119.372H141.282V132.919H127.788V153.352H141.282V166.9H161.635V153.352H175.129V132.919Z" fill="#F0F0F0"/>
<path fill-rule="evenodd" clip-rule="evenodd" d="M151.764 76.6801C151.583 76.7759 151.389 76.8207 151.187 76.8419C151.433 84.0397 152.368 112.56 152.148 122.942C152.053 127.383 151.79 137.345 151.485 148.882C150.96 168.702 150.366 191.167 150.366 195.518C150.366 202.338 150.114 246.433 150.111 246.878L150.769 246.882C150.771 246.437 151.024 202.34 151.024 195.518C151.024 191.176 151.617 168.716 152.142 148.9C152.447 137.362 152.711 127.398 152.806 122.956C153.028 112.469 152.074 83.54 151.838 76.6445C151.813 76.6544 151.791 76.6709 151.764 76.6801" fill="#D0D0D0"/>
<path fill-rule="evenodd" clip-rule="evenodd" d="M178.608 71.1632C178.608 71.1632 178.595 71.1698 178.575 71.1764C178.214 71.3415 175.11 72.7013 170.199 74.0281C167.917 74.642 165.248 75.2559 162.282 75.7378C162.256 75.7444 162.23 75.7444 162.203 75.751C151.098 77.5399 135.844 77.5135 121.255 69.2885C121.255 69.2885 124.647 46.2902 124.647 34.5335C124.647 22.7835 127.362 11.8785 133.135 6.26088C138.901 0.636718 147.383 -0.894745 154.511 0.465088C157.686 1.07239 161.605 2.8679 165.136 5.38953C167.043 6.74277 168.831 8.31384 170.337 10.0301C172.309 12.2745 173.782 14.7565 174.367 17.331C175.367 21.7009 175.787 29.9061 176.031 37.7219C176.07 38.9959 176.11 40.2633 176.143 41.5043C176.149 41.8608 176.162 42.2173 176.169 42.5671C176.3 47.5048 176.392 51.8813 176.57 54.469C177.083 61.7896 177.76 68.437 178.608 71.1632" fill="white"/>
<path fill-rule="evenodd" clip-rule="evenodd" d="M176.029 37.7231L176.031 37.7218C175.788 29.906 175.367 21.7015 174.367 17.3309C173.782 14.7564 172.309 12.2744 170.337 10.03C171.054 11.37 171.816 12.8223 172.454 14.0963C174.235 17.6741 174.999 33.1274 174.999 33.1274C174.999 33.1274 167.365 34.4086 166.859 34.5334L166.403 37.4874C166.141 37.5132 165.874 37.5396 165.623 37.5633L165.373 37.9462L166.392 49.6962C167.411 49.1879 170.12 45.2669 172.158 43.907C173.282 43.1552 174.926 42.765 176.169 42.567C176.126 40.9986 176.081 39.3681 176.029 37.7231" fill="#D0D0D0"/>
<path fill-rule="evenodd" clip-rule="evenodd" d="M178.608 71.1632C178.608 71.1632 178.595 71.1698 178.575 71.1764C178.141 71.3217 173.315 72.9522 170.199 74.0281C169.475 74.2724 168.844 74.4902 168.384 74.6552C167.424 74.9919 165.004 75.4012 162.282 75.7378C162.256 75.7444 162.23 75.7444 162.203 75.751C157.739 76.3055 152.479 76.662 151.46 76.1867C151.46 76.1867 162.401 73.3746 164.945 71.9686C167.49 70.5625 174.367 62.1329 174.492 57.149C174.617 52.1652 174.617 47.9537 174.617 47.9537L174.236 41.4383L176.143 41.5043C176.149 41.8608 176.162 42.2173 176.169 42.5671C176.3 47.5048 176.392 51.8813 176.57 54.469C177.083 61.7896 177.76 68.437 178.608 71.1632" fill="#D0D0D0"/>
<mask id="mask0_5_880" style="mask-type:alpha" maskUnits="userSpaceOnUse" x="134" y="21" width="35" height="42">
<path fill-rule="evenodd" clip-rule="evenodd" d="M146.445 21.6957C140.921 22.5304 136.569 25.0333 135.398 29.205V29.205C134.227 33.376 134.017 58.7792 134.017 59.2803V59.2803C134.017 60.2818 140.065 62.9768 150.462 62.7841V62.7841C160.679 62.5966 167.409 59.7807 167.409 59.7807V59.7807C167.409 59.7807 169.375 28.7039 166.697 24.8658V24.8658C164.817 22.1722 158.321 21.2877 152.704 21.2877V21.2877C150.319 21.2877 148.091 21.4474 146.445 21.6957" fill="white"/>
</mask>
<g mask="url(#mask0_5_880)">
<path fill-rule="evenodd" clip-rule="evenodd" d="M168.596 32.3265C168.154 28.877 167.115 25.4185 164.381 23.1051C160.934 20.1897 156.017 19.5295 151.682 19.2347C147.034 18.9179 141.733 18.398 138.009 21.7854C136.19 23.4413 134.619 25.6526 133.174 27.6375C131.646 29.7383 130.272 32.1118 130.201 34.7802C130.197 34.9451 130.256 35.0699 130.345 35.1604C130.177 37.8573 130.311 40.5509 130.411 43.2503C130.509 45.911 130.588 48.4611 131.267 51.0564C131.83 53.2063 132.633 55.329 133.9 57.1626C135.231 59.0888 136.948 60.7007 138.745 62.1781C140.616 63.7169 142.571 65.2015 144.548 66.6013C146.155 67.7399 147.959 68.7027 149.986 68.5268C152.41 68.3173 154.819 66.6744 156.821 65.398C159.018 63.9976 161.118 62.4122 163.012 60.6166C166.528 57.2848 167.967 52.8565 168.696 48.1591C169.497 42.9904 169.259 37.5042 168.596 32.3265" fill="#FFC6AD"/>
</g>
<mask id="mask1_5_880" style="mask-type:alpha" maskUnits="userSpaceOnUse" x="134" y="21" width="35" height="42">
<path fill-rule="evenodd" clip-rule="evenodd" d="M146.445 21.6957C140.921 22.5304 136.569 25.0333 135.398 29.205V29.205C134.227 33.376 134.017 58.7792 134.017 59.2803V59.2803C134.017 60.2818 140.065 62.9768 150.462 62.7841V62.7841C160.679 62.5966 167.409 59.7807 167.409 59.7807V59.7807C167.409 59.7807 169.375 28.7039 166.697 24.8658V24.8658C164.817 22.1722 158.321 21.2877 152.704 21.2877V21.2877C150.319 21.2877 148.091 21.4474 146.445 21.6957" fill="white"/>
</mask>
<g mask="url(#mask1_5_880)">
<path fill-rule="evenodd" clip-rule="evenodd" d="M150.565 47.0316C150.475 46.5092 150.557 45.9577 150.541 45.4327C150.523 44.8688 150.308 44.2384 150.496 43.6876C150.566 43.4813 150.251 43.4011 150.174 43.5983C149.951 44.1764 150.142 44.8339 150.129 45.4327C150.116 46.1025 149.95 46.7859 150.149 47.4441C150.195 47.5929 150.371 47.6756 150.509 47.5909C151.211 47.1629 152.698 47.7021 152.574 48.6675C152.52 49.0942 152.141 49.4311 151.81 49.6619C151.631 49.7873 151.441 49.8966 151.245 49.9923C151.07 50.0783 150.863 50.1248 150.732 50.2781C150.621 50.4074 150.642 50.6628 150.842 50.6983C151.353 50.7895 152.028 50.2509 152.392 49.9386C152.824 49.5681 153.187 49.0399 153.119 48.4444C152.994 47.3336 151.572 46.6747 150.565 47.0316" fill="#C17E67"/>
</g>
<mask id="mask2_5_880" style="mask-type:alpha" maskUnits="userSpaceOnUse" x="134" y="21" width="35" height="42">
<path fill-rule="evenodd" clip-rule="evenodd" d="M146.445 21.6957C140.921 22.5304 136.569 25.0333 135.398 29.205V29.205C134.227 33.376 134.017 58.7792 134.017 59.2803V59.2803C134.017 60.2818 140.065 62.9768 150.462 62.7841V62.7841C160.679 62.5966 167.409 59.7807 167.409 59.7807V59.7807C167.409 59.7807 169.375 28.7039 166.697 24.8658V24.8658C164.817 22.1722 158.321 21.2877 152.704 21.2877V21.2877C150.319 21.2877 148.091 21.4474 146.445 21.6957" fill="white"/>
</mask>
<g mask="url(#mask2_5_880)">
<path fill-rule="evenodd" clip-rule="evenodd" d="M155.415 56.561C154.984 56.7226 154.606 56.9871 154.172 57.1474C153.715 57.3162 153.235 57.4403 152.76 57.5419C151.767 57.7533 150.754 57.7468 149.748 57.6757C148.921 57.6169 148.087 57.5464 147.271 57.3951C146.434 57.2406 145.519 57.0537 144.85 56.4944C144.66 56.336 144.385 56.6024 144.575 56.7711C145.919 57.9673 147.845 58.1076 149.55 58.2744C150.65 58.3818 151.756 58.4257 152.852 58.2524C153.768 58.1076 155.081 57.8251 155.72 57.086C155.905 56.8714 155.733 56.4414 155.415 56.561" fill="#FF6969"/>
</g>
<mask id="mask3_5_880" style="mask-type:alpha" maskUnits="userSpaceOnUse" x="134" y="21" width="35" height="42">
<path fill-rule="evenodd" clip-rule="evenodd" d="M146.445 21.6957C140.921 22.5304 136.569 25.0333 135.398 29.205V29.205C134.227 33.376 134.017 58.7792 134.017 59.2803V59.2803C134.017 60.2818 140.065 62.9768 150.462 62.7841V62.7841C160.679 62.5966 167.409 59.7807 167.409 59.7807V59.7807C167.409 59.7807 169.375 28.7039 166.697 24.8658V24.8658C164.817 22.1722 158.321 21.2877 152.704 21.2877V21.2877C150.319 21.2877 148.091 21.4474 146.445 21.6957" fill="white"/>
</mask>
<g mask="url(#mask3_5_880)">
<path fill-rule="evenodd" clip-rule="evenodd" d="M158.699 39.5228C158.696 39.1859 158.643 38.6816 158.196 38.6816C157.752 38.6816 157.693 39.1859 157.705 39.5228C157.714 39.7749 157.725 40.0271 157.738 40.2799C157.75 40.5573 157.771 40.8263 157.816 41.1004C157.859 41.3662 157.862 41.6836 158.076 41.8698C158.183 41.9636 158.321 41.9642 158.429 41.8698C158.65 41.6765 158.644 41.3377 158.677 41.0636C158.708 40.7991 158.713 40.5463 158.709 40.2799C158.705 40.0271 158.7 39.7749 158.699 39.5228" fill="#00143B"/>
</g>
<mask id="mask4_5_880" style="mask-type:alpha" maskUnits="userSpaceOnUse" x="134" y="21" width="35" height="42">
<path fill-rule="evenodd" clip-rule="evenodd" d="M146.445 21.6957C140.921 22.5304 136.569 25.0333 135.398 29.205V29.205C134.227 33.376 134.017 58.7792 134.017 59.2803V59.2803C134.017 60.2818 140.065 62.9768 150.462 62.7841V62.7841C160.679 62.5966 167.409 59.7807 167.409 59.7807V59.7807C167.409 59.7807 169.375 28.7039 166.697 24.8658V24.8658C164.817 22.1722 158.321 21.2877 152.704 21.2877V21.2877C150.319 21.2877 148.091 21.4474 146.445 21.6957" fill="white"/>
</mask>
<g mask="url(#mask4_5_880)">
<path fill-rule="evenodd" clip-rule="evenodd" d="M161.082 35.0934C160.661 34.8645 160.131 34.8367 159.658 34.7921C159.129 34.7423 158.596 34.7326 158.066 34.7694C157.07 34.8386 156.008 35.0604 155.2 35.683C154.952 35.8744 155.162 36.2792 155.453 36.1175C156.277 35.6598 157.217 35.4632 158.15 35.407C158.625 35.3785 159.102 35.3876 159.576 35.4283C160.032 35.4664 160.495 35.6055 160.949 35.5886C161.2 35.5796 161.322 35.224 161.082 35.0934" fill="#00143B"/>
</g>
<mask id="mask5_5_880" style="mask-type:alpha" maskUnits="userSpaceOnUse" x="134" y="21" width="35" height="42">
<path fill-rule="evenodd" clip-rule="evenodd" d="M146.445 21.6957C140.921 22.5304 136.569 25.0333 135.398 29.205V29.205C134.227 33.376 134.017 58.7792 134.017 59.2803V59.2803C134.017 60.2818 140.065 62.9768 150.462 62.7841V62.7841C160.679 62.5966 167.409 59.7807 167.409 59.7807V59.7807C167.409 59.7807 169.375 28.7039 166.697 24.8658V24.8658C164.817 22.1722 158.321 21.2877 152.704 21.2877V21.2877C150.319 21.2877 148.091 21.4474 146.445 21.6957" fill="white"/>
</mask>
<g mask="url(#mask5_5_880)">
<path fill-rule="evenodd" clip-rule="evenodd" d="M142.228 39.5228C142.229 39.1859 142.283 38.6816 142.73 38.6816C143.174 38.6816 143.233 39.1859 143.22 39.5228C143.212 39.7749 143.2 40.0271 143.189 40.2799C143.176 40.5573 143.156 40.8263 143.11 41.1004C143.067 41.3662 143.064 41.6836 142.85 41.8698C142.743 41.9636 142.605 41.9642 142.497 41.8698C142.276 41.6765 142.281 41.3377 142.249 41.0636C142.218 40.7991 142.213 40.5463 142.217 40.2799C142.221 40.0271 142.226 39.7749 142.228 39.5228" fill="#00143B"/>
</g>
<mask id="mask6_5_880" style="mask-type:alpha" maskUnits="userSpaceOnUse" x="134" y="21" width="35" height="42">
<path fill-rule="evenodd" clip-rule="evenodd" d="M146.445 21.6957C140.921 22.5304 136.569 25.0333 135.398 29.205V29.205C134.227 33.376 134.017 58.7792 134.017 59.2803V59.2803C134.017 60.2818 140.065 62.9768 150.462 62.7841V62.7841C160.679 62.5966 167.409 59.7807 167.409 59.7807V59.7807C167.409 59.7807 169.375 28.7039 166.697 24.8658V24.8658C164.817 22.1722 158.321 21.2877 152.704 21.2877V21.2877C150.319 21.2877 148.091 21.4474 146.445 21.6957" fill="white"/>
</mask>
<g mask="url(#mask6_5_880)">
<path fill-rule="evenodd" clip-rule="evenodd" d="M139.844 35.0934C140.265 34.8645 140.795 34.8367 141.268 34.7921C141.797 34.7423 142.33 34.7326 142.86 34.7694C143.856 34.8386 144.918 35.0604 145.725 35.683C145.974 35.8744 145.764 36.2792 145.474 36.1175C144.649 35.6598 143.709 35.4632 142.776 35.407C142.3 35.3785 141.824 35.3876 141.349 35.4283C140.894 35.4664 140.43 35.6055 139.977 35.5886C139.725 35.5796 139.604 35.224 139.844 35.0934" fill="#00143B"/>
</g>
<mask id="mask7_5_880" style="mask-type:alpha" maskUnits="userSpaceOnUse" x="134" y="21" width="35" height="42">
<path fill-rule="evenodd" clip-rule="evenodd" d="M146.445 21.6957C140.921 22.5304 136.569 25.0333 135.398 29.205V29.205C134.227 33.376 134.017 58.7792 134.017 59.2803V59.2803C134.017 60.2818 140.065 62.9768 150.462 62.7841V62.7841C160.679 62.5966 167.409 59.7807 167.409 59.7807V59.7807C167.409 59.7807 169.375 28.7039 166.697 24.8658V24.8658C164.817 22.1722 158.321 21.2877 152.704 21.2877V21.2877C150.319 21.2877 148.091 21.4474 146.445 21.6957" fill="white"/>
</mask>
<g mask="url(#mask7_5_880)">
<path fill-rule="evenodd" clip-rule="evenodd" d="M169.665 30.4986C169.665 30.4986 155.234 26.9941 146.317 27.492C141.796 27.7506 138.534 28.7399 136.419 29.658C135.655 29.9878 135.044 30.3111 134.572 30.5891C133.773 31.0482 133.391 31.3714 133.391 31.3714C133.391 31.3714 131.633 26.8713 131.886 23.4897C132.132 20.1081 136.024 15.983 139.54 14.1015C141.173 13.2286 145.908 13.4678 151.032 14.2567C155.007 14.8709 159.223 15.8214 162.408 16.8494H162.414C163.945 17.3473 165.235 17.8581 166.15 18.3559C168.608 19.7008 169.536 22.4293 169.827 24.9574C169.905 25.6098 169.937 26.2506 169.945 26.8512C169.963 28.9145 169.665 30.4986 169.665 30.4986" fill="#F5BB40"/>
</g>
<mask id="mask8_5_880" style="mask-type:alpha" maskUnits="userSpaceOnUse" x="134" y="21" width="35" height="42">
<path fill-rule="evenodd" clip-rule="evenodd" d="M146.445 21.6957C140.921 22.5304 136.569 25.0333 135.398 29.205V29.205C134.227 33.376 134.017 58.7792 134.017 59.2803V59.2803C134.017 60.2818 140.065 62.9768 150.462 62.7841V62.7841C160.679 62.5966 167.409 59.7807 167.409 59.7807V59.7807C167.409 59.7807 169.375 28.7039 166.697 24.8658V24.8658C164.817 22.1722 158.321 21.2877 152.704 21.2877V21.2877C150.319 21.2877 148.091 21.4474 146.445 21.6957" fill="white"/>
</mask>
<g mask="url(#mask8_5_880)">
<path fill-rule="evenodd" clip-rule="evenodd" d="M169.944 26.8514L168.368 27.8666C168.368 27.8666 164.69 26.1144 161.844 24.699C158.996 23.2824 154.061 23.0308 154.061 23.0308C154.061 23.0308 145.609 23.5281 142.678 24.7831C140.447 25.7335 137.645 28.4233 136.42 29.6582C135.654 29.988 135.044 30.3113 134.571 30.5886C133.319 30.4729 133.643 28.539 133.643 28.539L134.143 21.3627L139.163 14.6894L151.032 14.2569C155.008 14.8711 159.223 15.8209 162.408 16.849H162.414L169.827 24.957C169.905 25.61 169.937 26.2501 169.944 26.8514" fill="#D5A237"/>
</g>
<mask id="mask9_5_880" style="mask-type:alpha" maskUnits="userSpaceOnUse" x="134" y="21" width="35" height="42">
<path fill-rule="evenodd" clip-rule="evenodd" d="M146.445 21.6957C140.921 22.5304 136.569 25.0333 135.398 29.205V29.205C134.227 33.376 134.017 58.7792 134.017 59.2803V59.2803C134.017 60.2818 140.065 62.9768 150.462 62.7841V62.7841C160.679 62.5966 167.409 59.7807 167.409 59.7807V59.7807C167.409 59.7807 169.375 28.7039 166.697 24.8658V24.8658C164.817 22.1722 158.321 21.2877 152.704 21.2877V21.2877C150.319 21.2877 148.091 21.4474 146.445 21.6957" fill="white"/>
</mask>
<g mask="url(#mask9_5_880)">
<path fill-rule="evenodd" clip-rule="evenodd" d="M167.785 59.9883C167.181 61.2885 165.073 63.1565 162.154 64.7535C157.758 67.1717 151.505 68.9821 145.778 67.3334C136.238 64.5796 134.312 63.2406 133.222 59.407C132.639 57.3509 132.755 54.603 132.982 52.4945C133.034 52.0167 133.093 51.5764 133.151 51.1826C133.313 50.0511 133.475 49.3134 133.475 49.3134C133.475 49.3134 134.156 49.3651 135.213 49.4045C137.659 49.4886 142.114 49.4951 144.689 48.5569C146.816 47.7881 148.49 46.8564 150.156 46.5719C150.273 46.5532 150.39 46.5331 150.506 46.5273C150.578 46.5137 150.642 46.5073 150.708 46.5073C151.194 46.462 151.681 46.4879 152.186 46.5913C152.336 46.6236 152.485 46.6631 152.64 46.7148C152.724 46.7336 152.802 46.7594 152.886 46.7924C153.237 46.9146 153.6 47.0898 153.977 47.3096C157.238 49.2293 161.176 49.98 163.601 49.8119C166.027 49.6431 168.368 48.8097 168.368 48.8097C168.368 48.8097 169.289 56.7367 167.785 59.9883" fill="#58BAD3"/>
</g>
<mask id="mask10_5_880" style="mask-type:alpha" maskUnits="userSpaceOnUse" x="134" y="21" width="35" height="42">
<path fill-rule="evenodd" clip-rule="evenodd" d="M146.445 21.6957C140.921 22.5304 136.569 25.0333 135.398 29.205V29.205C134.227 33.376 134.017 58.7792 134.017 59.2803V59.2803C134.017 60.2818 140.065 62.9768 150.462 62.7841V62.7841C160.679 62.5966 167.409 59.7807 167.409 59.7807V59.7807C167.409 59.7807 169.375 28.7039 166.697 24.8658V24.8658C164.817 22.1722 158.321 21.2877 152.704 21.2877V21.2877C150.319 21.2877 148.091 21.4474 146.445 21.6957" fill="white"/>
</mask>
<g mask="url(#mask10_5_880)">
<path fill-rule="evenodd" clip-rule="evenodd" d="M168.368 48.8097C168.368 48.8097 166.027 49.6431 163.601 49.8119C161.175 49.98 157.238 49.2293 153.977 47.3097C152.595 46.495 151.376 46.3592 150.156 46.5719C148.49 46.8564 146.817 47.7881 144.689 48.5569C142.114 49.4951 137.658 49.4886 135.213 49.4045L133.151 51.1826C133.092 51.5764 133.035 52.0167 132.982 52.4945L134.396 52.7732C134.396 52.7732 140.045 52.6497 142.801 51.8997C144.903 51.3249 148.606 48.8679 150.474 47.6129C150.475 47.6129 150.475 47.6122 150.475 47.6122C150.729 48.0396 151.065 48.6597 151.298 49.3134C151.719 50.4772 151.966 52.6497 152.05 53.8135C152.135 54.9845 152.136 55.902 152.136 55.902C152.136 55.902 153.561 52.4822 154.313 52.3141C155.066 52.1454 156.487 52.0613 157.576 52.4822C158.665 52.8954 161.007 53.3163 161.007 53.3163L164.522 54.4019L165.858 58.4048C165.858 58.4048 162.849 60.2411 160.923 61.4883C158.997 62.7433 154.897 64.9087 154.897 64.9087L162.155 64.7535C165.073 63.1565 167.181 61.2886 167.785 59.9883C169.289 56.7367 168.368 48.8097 168.368 48.8097" fill="#0099B8"/>
</g>
<mask id="mask11_5_880" style="mask-type:alpha" maskUnits="userSpaceOnUse" x="134" y="21" width="35" height="42">
<path fill-rule="evenodd" clip-rule="evenodd" d="M146.445 21.6957C140.921 22.5304 136.569 25.0333 135.398 29.205V29.205C134.227 33.376 134.017 58.7792 134.017 59.2803V59.2803C134.017 60.2818 140.065 62.9768 150.462 62.7841V62.7841C160.679 62.5966 167.409 59.7807 167.409 59.7807V59.7807C167.409 59.7807 169.375 28.7039 166.697 24.8658V24.8658C164.817 22.1722 158.321 21.2877 152.704 21.2877V21.2877C150.319 21.2877 148.091 21.4474 146.445 21.6957" fill="white"/>
</mask>
<g mask="url(#mask11_5_880)">
<path fill-rule="evenodd" clip-rule="evenodd" d="M140.754 54.9837C140.878 54.7664 144.185 54.4839 145.441 54.3164C146.696 54.1496 148.872 52.9813 148.621 53.7319C148.369 54.4839 146.78 55.1512 146.78 55.1512C146.78 55.1512 144.185 55.4841 142.847 55.651C141.507 55.8184 140.419 55.5675 140.754 54.9837" fill="#85E4E0"/>
</g>
<mask id="mask12_5_880" style="mask-type:alpha" maskUnits="userSpaceOnUse" x="134" y="21" width="35" height="42">
<path fill-rule="evenodd" clip-rule="evenodd" d="M146.445 21.6957C140.921 22.5304 136.569 25.0333 135.398 29.205V29.205C134.227 33.376 134.017 58.7792 134.017 59.2803V59.2803C134.017 60.2818 140.065 62.9768 150.462 62.7841V62.7841C160.679 62.5966 167.409 59.7807 167.409 59.7807V59.7807C167.409 59.7807 169.375 28.7039 166.697 24.8658V24.8658C164.817 22.1722 158.321 21.2877 152.704 21.2877V21.2877C150.319 21.2877 148.091 21.4474 146.445 21.6957" fill="white"/>
</mask>
<g mask="url(#mask12_5_880)">
<path fill-rule="evenodd" clip-rule="evenodd" d="M140.168 57.2366C140.344 56.9916 143.432 57.4868 144.352 57.32C145.273 57.1532 147.449 56.6528 146.529 57.4034C145.608 58.1541 143.014 58.0707 143.014 58.0707C143.014 58.0707 139.332 58.405 140.168 57.2366" fill="#85E4E0"/>
</g>
<path fill-rule="evenodd" clip-rule="evenodd" d="M176.693 38.7152V41.541C176.693 42.1158 176.213 42.5861 175.625 42.5861H169.288V37.67H175.625C176.213 37.67 176.693 38.1352 176.693 38.7152" fill="#00CCB2"/>
<path fill-rule="evenodd" clip-rule="evenodd" d="M172.948 42.5861H169.287V37.67H171.859C172.235 39.0958 172.71 41.0506 172.948 42.5861" fill="#00A48F"/>
<path fill-rule="evenodd" clip-rule="evenodd" d="M123.079 38.7152V41.541C123.079 42.1158 123.559 42.5861 124.147 42.5861H130.484V37.67H124.147C123.559 37.67 123.079 38.1352 123.079 38.7152" fill="#00CCB2"/>
<path fill-rule="evenodd" clip-rule="evenodd" d="M126.824 42.5861H130.485V37.67H127.913C127.537 39.0958 127.062 41.0506 126.824 42.5861" fill="#00A48F"/>
<path fill-rule="evenodd" clip-rule="evenodd" d="M130.567 47.0783L131.163 32.5107C131.163 32.5107 138.737 30.9288 144.013 31.012C149.289 31.0958 167.074 32.0939 168.266 32.4274C169.458 32.7603 169.628 39.0867 169.628 40.5854C169.628 42.0841 169.097 46.6125 167.49 47.4279C165.883 48.2441 159.586 48.4937 157.288 48.1608C154.99 47.8273 151.416 45.1634 149.459 45.7467C147.502 46.3292 143.077 47.9112 140.693 48.577C138.311 49.2428 131.078 49.0763 130.567 47.0783" fill="white"/>
<path fill-rule="evenodd" clip-rule="evenodd" d="M138.681 30.3918C137.196 30.3918 136.102 30.4041 135.588 30.4299C132.268 30.5957 130.397 31.428 129.716 32.7602C129.035 34.0918 129.716 46.9949 129.716 46.9949C129.971 49.16 131.588 49.8258 135.758 49.8258C139.928 49.8258 143.842 48.7433 147.587 47.1614C148.59 46.7375 149.32 46.5646 149.922 46.5646C151.567 46.5646 152.272 47.8517 155.075 48.8265C156.504 49.3239 158.549 49.5658 160.64 49.5658C164.152 49.5658 167.795 48.8826 168.862 47.5781C170.563 45.4969 170.904 39.0872 170.223 34.675C169.728 31.4712 168.607 31.0325 168.029 31.0325C167.811 31.0325 167.67 31.0957 167.67 31.0957C166.591 30.7435 146.79 30.3918 138.681 30.3918V30.3918ZM138.683 32.3273C147.792 32.3273 165.223 32.6873 167.146 32.9647L167.782 33.1718L167.79 33.1679C167.933 33.4705 168.121 34.0196 168.266 34.9641C169.004 39.7369 168.349 45.1065 167.319 46.3659C166.934 46.793 164.507 47.6304 160.64 47.6304C158.671 47.6304 156.884 47.4014 155.738 47.0026C154.648 46.6239 153.955 46.202 153.285 45.7936C152.346 45.2207 151.375 44.6291 149.922 44.6291C149.014 44.6291 148.022 44.8691 146.802 45.3846C142.812 47.071 139.199 47.8904 135.758 47.8904C135.083 47.8904 133.03 47.8904 132.106 47.4684C131.881 47.3659 131.753 47.3072 131.688 46.8278C131.403 41.3763 131.269 34.8821 131.538 33.5402C131.892 33.0396 133.143 32.4899 135.689 32.3622C136.007 32.346 136.785 32.3273 138.682 32.3273H138.683Z" fill="#00CCB2"/>
<path fill-rule="evenodd" clip-rule="evenodd" d="M120.696 70.6371C120.696 70.6371 142.821 83.9563 178.223 72.4687C178.223 72.4687 172.606 77.7964 149.458 78.7951C149.458 78.7951 130.056 78.7951 120.696 70.6371" fill="#00CCB2"/>
</svg>
