<svg width="20" height="20" viewBox="0 0 20 20" fill="none" xmlns="http://www.w3.org/2000/svg">
<path fill-rule="evenodd" clip-rule="evenodd" d="M6.31986 0.863393L8.46412 2.91772L8.48014 2.93342C9.06624 3.52071 9.30699 4.33495 9.30698 5.06864C9.30697 5.80232 9.0662 6.61653 8.48019 7.20382L7.43689 8.2494C7.6825 9.10995 8.26788 10.0591 9.08295 10.8813C9.90007 11.7055 10.8489 12.3023 11.7247 12.5514L12.7674 11.5065C13.3537 10.9189 14.1672 10.677 14.901 10.677C15.6347 10.677 16.4483 10.9189 17.0346 11.5065L19.1732 13.6497C19.7593 14.237 20 15.0512 20 15.7849C20 16.5186 19.7592 17.3328 19.1732 17.9201C17.5784 19.5183 15.498 20 14.5444 20C13.0682 20 11.735 19.9091 10.2001 19.1911C8.70361 18.491 7.09001 17.2307 4.92613 15.0621C2.73292 12.8641 1.48625 11.0667 0.796617 9.4873C0.0975118 7.88624 0 6.57402 0 5.42591C0 4.62276 0.10093 3.854 0.437087 3.06802C0.769875 2.28992 1.3045 1.56185 2.07447 0.790204C2.67733 0.186038 3.50841 -0.0258054 4.24022 0.00246637C4.96926 0.0306305 5.75309 0.300799 6.31986 0.863393ZM4.16302 2.00098C3.83204 1.98819 3.60033 2.09253 3.49022 2.20288C2.83446 2.86007 2.47791 3.38231 2.27596 3.8545C2.07738 4.31881 2 4.80031 2 5.42591C2 6.42115 2.0809 7.43058 2.6295 8.68696C3.18757 9.96503 4.25791 11.5609 6.34189 13.6494C8.45519 15.7673 9.87104 16.8291 11.0476 17.3795C12.1857 17.9119 13.169 18 14.5444 18C15.0513 18 16.5936 17.6738 17.7574 16.5074C17.8843 16.3802 18 16.1228 18 15.7849C18 15.4469 17.8843 15.1895 17.7575 15.0624L15.6188 12.9192C15.4923 12.7923 15.2365 12.677 14.901 12.677C14.5654 12.677 14.3097 12.7923 14.1831 12.9192L12.7574 14.348C12.5349 14.5709 12.2205 14.676 11.9087 14.6317C10.3463 14.4095 8.82113 13.458 7.66259 12.2893C6.5044 11.121 5.57453 9.59635 5.35659 8.06744C5.31224 7.75632 5.41673 7.44244 5.63871 7.21998L7.06444 5.79115C7.19129 5.66401 7.30698 5.40657 7.30698 5.06861C7.30699 4.73575 7.19477 4.48105 7.07022 4.35203L4.9291 2.30071L4.91307 2.285C4.76753 2.13917 4.49296 2.01372 4.16302 2.00098Z" fill="#F19FA5"/>
</svg>
