<svg width="32" height="32" viewBox="0 0 32 32" fill="none" xmlns="http://www.w3.org/2000/svg">
<g clip-path="url(#clip0_7_1353)">
<rect x="2.66663" y="8" width="26.6667" height="16" stroke="black" stroke-width="2" stroke-linecap="round" stroke-linejoin="round"/>
<path d="M29.3333 13.3333C28.633 13.3333 27.9394 13.1954 27.2924 12.9274C26.6453 12.6593 26.0573 12.2665 25.5621 11.7712C25.0669 11.276 24.674 10.688 24.406 10.041C24.138 9.39391 24 8.70038 24 8L29.3333 8L29.3333 13.3333Z" stroke="black" stroke-width="2" stroke-linecap="round" stroke-linejoin="round"/>
<path d="M24 24C24 22.5855 24.5619 21.229 25.5621 20.2288C26.5623 19.2286 27.9188 18.6667 29.3333 18.6667L29.3333 24L24 24Z" stroke="black" stroke-width="2" stroke-linecap="round" stroke-linejoin="round"/>
<path d="M2.66671 18.6667C4.0812 18.6667 5.43775 19.2286 6.43794 20.2288C7.43814 21.229 8.00004 22.5855 8.00004 24L2.66671 24L2.66671 18.6667Z" stroke="black" stroke-width="2" stroke-linecap="round" stroke-linejoin="round"/>
<path d="M8.00004 8C8.00004 9.41448 7.43814 10.771 6.43794 11.7712C5.43775 12.7714 4.0812 13.3333 2.66671 13.3333L2.66671 8H8.00004Z" stroke="black" stroke-width="2" stroke-linecap="round" stroke-linejoin="round"/>
<path d="M18.7655 13.6667C19.3178 13.6667 19.7655 13.2189 19.7655 12.6667C19.7655 12.1144 19.3178 11.6667 18.7655 11.6667V13.6667ZM13.3334 18.3333C12.7811 18.3333 12.3334 18.781 12.3334 19.3333C12.3334 19.8856 12.7811 20.3333 13.3334 20.3333V18.3333ZM18.7655 11.6667H15.1112V13.6667H18.7655V11.6667ZM15.1112 17H17.4815V15H15.1112V17ZM17.4815 18.3333H13.3334V20.3333H17.4815V18.3333ZM18.2593 17.6667C18.2593 17.975 17.9729 18.3333 17.4815 18.3333V20.3333C18.9539 20.3333 20.2593 19.1992 20.2593 17.6667H18.2593ZM17.4815 17C17.9729 17 18.2593 17.3583 18.2593 17.6667H20.2593C20.2593 16.1341 18.9539 15 17.4815 15V17ZM12.3334 14.3333C12.3334 15.8659 13.6388 17 15.1112 17V15C14.6198 15 14.3334 14.6417 14.3334 14.3333H12.3334ZM15.1112 11.6667C13.6388 11.6667 12.3334 12.8008 12.3334 14.3333H14.3334C14.3334 14.025 14.6198 13.6667 15.1112 13.6667V11.6667Z" fill="black"/>
<path d="M16 12.6898V11.3333" stroke="black" stroke-width="2" stroke-linecap="round" stroke-linejoin="round"/>
<path d="M16 20.6898V19.3333" stroke="black" stroke-width="2" stroke-linecap="round" stroke-linejoin="round"/>
</g>
<defs>
<clipPath id="clip0_7_1353">
<rect width="32" height="32" fill="white"/>
</clipPath>
</defs>
</svg>
