<svg width="40" height="40" viewBox="0 0 40 40" fill="none" xmlns="http://www.w3.org/2000/svg">
<rect width="39.2533" height="40" rx="7" fill="#F9F6F4"/>
<path d="M16.3781 25.3077L16.9113 25.8408L17.9776 24.7745L17.4444 24.2413L16.3781 25.3077ZM12.064 19.9273L11.5308 19.3941L10.9977 19.9273L11.5308 20.4604L12.064 19.9273ZM17.4444 15.6132L17.9776 15.08L16.9113 14.0137L16.3781 14.5468L17.4444 15.6132ZM17.4444 24.2413L12.5972 19.3941L11.5308 20.4604L16.3781 25.3077L17.4444 24.2413ZM12.5972 20.4604L17.4444 15.6132L16.3781 14.5468L11.5308 19.3941L12.5972 20.4604ZM12.064 20.6813H27.8176V19.1733H12.064V20.6813Z" fill="#393938"/>
</svg>
