<svg width="75" height="11" viewBox="0 0 75 11" fill="none" xmlns="http://www.w3.org/2000/svg">
<path d="M5.50003 8.82967L2.3273 10.4978L2.93337 6.96469L0.366699 4.46279L3.91366 3.94771L5.50003 0.733337L7.0864 3.94771L10.6334 4.46279L8.0667 6.96469L8.67277 10.4978L5.50003 8.82967Z" fill="#EF873D"/>
<path d="M21.5 8.82967L18.3273 10.4978L18.9334 6.96469L16.3667 4.46279L19.9137 3.94771L21.5 0.733337L23.0864 3.94771L26.6334 4.46279L24.0667 6.96469L24.6728 10.4978L21.5 8.82967Z" fill="#EF873D"/>
<path d="M37.5 8.82967L34.3273 10.4978L34.9334 6.96469L32.3667 4.46279L35.9137 3.94771L37.5 0.733337L39.0864 3.94771L42.6334 4.46279L40.0667 6.96469L40.6728 10.4978L37.5 8.82967Z" fill="#EF873D"/>
<path d="M53.5 8.82967L50.3273 10.4978L50.9334 6.96469L48.3667 4.46279L51.9137 3.94771L53.5 0.733337L55.0864 3.94771L58.6334 4.46279L56.0667 6.96469L56.6728 10.4978L53.5 8.82967Z" fill="#EF873D"/>
<path d="M69.5 8.82967L66.3273 10.4978L66.9334 6.96469L64.3667 4.46279L67.9137 3.94771L69.5 0.733337L71.0864 3.94771L74.6334 4.46279L72.0667 6.96469L72.6728 10.4978L69.5 8.82967Z" fill="#EF873D"/>
</svg>
